<svg width="32" height="32" viewBox="0 0 32 32" fill="none" xmlns="http://www.w3.org/2000/svg">
<path fill-rule="evenodd" clip-rule="evenodd" d="M15.256 2.27502C15.3755 2.01122 15.4219 1.71985 15.3902 1.43173C15.3585 1.14361 15.25 0.869455 15.0761 0.638251C14.9021 0.407047 14.6693 0.227392 14.4021 0.118285C14.135 0.00917804 13.8435 -0.0253247 13.5584 0.0184259C5.88 1.20221 0 7.86745 0 15.9159C0 24.7992 7.1632 32 16 32C24.8368 32 32 24.7992 32 15.9159C31.9999 15.7658 31.9977 15.6157 31.9936 15.4656C31.9856 15.1756 31.8998 14.8932 31.7451 14.6482C31.5905 14.4033 31.3728 14.205 31.1152 14.0742C30.8576 13.9435 30.5696 13.8853 30.2817 13.9057C29.9939 13.9261 29.7168 14.0243 29.48 14.1901C27.7538 15.3986 25.6804 16.0037 23.5788 15.9123C21.4772 15.8209 19.4636 15.0381 17.8476 13.6843C16.2316 12.3304 15.1027 10.4805 14.6345 8.41888C14.1663 6.35727 14.3846 4.19812 15.256 2.27341" fill="black"/>
</svg>
