<svg width="180" height="64" viewBox="0 0 180 64" fill="none" xmlns="http://www.w3.org/2000/svg">
<path d="M9.75 10.5C9.75 9.67157 10.4216 9 11.25 9H19.5586H52.75C53.5784 9 54.25 9.67157 54.25 10.5V52.5C54.25 53.3284 53.5784 54 52.75 54H11.25C10.4216 54 9.75 53.3284 9.75 52.5V10.5Z" fill="black" stroke="black"/>
<path d="M14 14.5C14 13.8096 14.5596 13.25 15.25 13.25H21.7461H48.75C49.4404 13.25 50 13.8096 50 14.5V48.5C50 49.1904 49.4404 49.75 48.75 49.75H15.25C14.5596 49.75 14 49.1904 14 48.5V14.5Z" fill="black" stroke="white" stroke-width="1.5"/>
<path d="M17.1334 21.7013L18.0068 25.3137C18.0068 25.3137 27.9015 32.5045 28.9743 32.7486C30.0472 32.9926 30.8158 36.7152 30.8158 36.7152L29.22 36.8415L29.8926 40.4385" stroke="white" stroke-width="1.5" stroke-miterlimit="100"/>
<path d="M30.195 36.2943L38.4267 38.8542L40.4224 40.8111L44.0949 43.8142L43.3722 44.925L41.843 45.3985" stroke="white" stroke-width="1.5" stroke-miterlimit="100"/>
<path d="M47.2651 43.6377L45.5221 44.8723L42.0778 41.9334L40.5975 36.0974L41.4392 34.8558L43.3822 34.6628" stroke="white" stroke-width="1.5" stroke-miterlimit="100"/>
<path d="M40.5975 36.0974L33.6075 34.3792L28.6114 27.6701L27.501 26.0112L28.2163 23.1738" stroke="white" stroke-width="1.5" stroke-miterlimit="100"/>
<path d="M21.5647 27.9068C21.5441 27.8928 28.5827 27.8016 28.5827 27.8016" stroke="white" stroke-width="1.5" stroke-miterlimit="100"/>
<path d="M45.4423 17.9827L37.9194 26.5916M40.3616 27.5956L47.7921 18.4561C47.8811 18.3466 48.0424 18.3332 48.1482 18.4266L49.417 19.5456C49.4776 19.599 49.5089 19.6787 49.501 19.7595L49.3734 21.0692C49.3567 21.2408 49.5125 21.3782 49.6787 21.3385L50.9949 21.024C51.0453 21.012 51.0907 20.9843 51.1248 20.945L52.8161 18.9915C52.9065 18.8872 52.8958 18.7285 52.7923 18.6372L49.2703 15.531C49.1667 15.4397 49.1561 15.2811 49.2464 15.1767L52.7934 11.0801C52.857 11.0067 52.9569 10.9771 53.0498 11.0042L56.0373 11.876C56.1301 11.9031 56.2301 11.8735 56.2936 11.8001L57.9332 9.90645C58.0236 9.80207 58.0129 9.64342 57.9094 9.55209L54.9793 6.96795L52.0492 4.38381C51.9456 4.29249 51.7884 4.30307 51.6981 4.40745L50.0585 6.30111C49.9949 6.37451 49.9793 6.47844 50.0183 6.56769L51.2748 9.43873C51.3138 9.52798 51.2982 9.63191 51.2346 9.7053L47.6876 13.8019C47.5973 13.9063 47.44 13.9169 47.3365 13.8256L43.4248 10.3757C43.3213 10.2844 43.164 10.295 43.0737 10.3994L41.3823 12.3528C41.3482 12.3922 41.3272 12.4413 41.3221 12.4933L41.1898 13.8518C41.173 14.0234 41.3288 14.1608 41.4951 14.1211L42.764 13.8179C42.8423 13.7992 42.9247 13.8198 42.9853 13.8732L44.6438 15.3359C44.7496 15.4293 44.7581 15.5923 44.6625 15.6961L36.8413 24.1826" stroke="black" stroke-width="4.5"/>
<path d="M49.417 19.5456L48.1482 18.4266C48.0423 18.3332 47.8811 18.3466 47.792 18.4561L32.856 36.8273C32.8015 36.8944 32.7165 36.9283 32.6312 36.9169L30.6949 36.6585C30.5774 36.6428 30.487 36.5456 30.479 36.4262L30.3965 35.2005L28.9547 33.0239C28.8906 32.927 28.9007 32.7985 28.9792 32.7133L44.6625 15.6961C44.7581 15.5923 44.7496 15.4293 44.6438 15.3359L42.9852 13.8732C42.9246 13.8198 42.8422 13.7992 42.764 13.8179L41.495 14.1211C41.3288 14.1608 41.173 14.0234 41.1897 13.8518L41.3221 12.4933C41.3272 12.4413 41.3482 12.3922 41.3823 12.3528L43.0736 10.3994C43.164 10.295 43.3212 10.2844 43.4248 10.3757L47.3365 13.8256C47.44 13.9169 47.5972 13.9063 47.6876 13.8019L51.2346 9.70531C51.2981 9.63192 51.3138 9.52798 51.2747 9.43873L50.0183 6.56769C49.9792 6.47844 49.9949 6.37451 50.0584 6.30112L51.698 4.40746C51.7884 4.30307 51.9456 4.29249 52.0492 4.38382L54.9792 6.96796L57.9093 9.5521C58.0129 9.64342 58.0236 9.80207 57.9332 9.90646L56.2936 11.8001C56.23 11.8735 56.1301 11.9031 56.0372 11.876L53.0498 11.0042C52.9569 10.9771 52.8569 11.0067 52.7934 11.0801L49.2464 15.1767C49.156 15.2811 49.1667 15.4397 49.2702 15.531L52.7922 18.6372C52.8958 18.7285 52.9065 18.8872 52.8161 18.9916L51.1247 20.945C51.0906 20.9844 51.0452 21.012 50.9948 21.024L49.6787 21.3385C49.5124 21.3782 49.3567 21.2409 49.3734 21.0692L49.501 19.7595C49.5089 19.6787 49.4776 19.599 49.417 19.5456Z" fill="black"/>
<path d="M30.3965 35.2005L28.9547 33.0239C28.8906 32.927 28.9007 32.7985 28.9792 32.7133L44.6625 15.6961C44.7581 15.5923 44.7496 15.4293 44.6438 15.3359L42.9852 13.8732C42.9246 13.8198 42.8422 13.7992 42.764 13.8179L41.495 14.1211C41.3288 14.1608 41.173 14.0234 41.1897 13.8518L41.3221 12.4933C41.3272 12.4413 41.3482 12.3922 41.3823 12.3528L43.0736 10.3994C43.164 10.295 43.3212 10.2844 43.4248 10.3757L47.3365 13.8256C47.44 13.9169 47.5972 13.9063 47.6876 13.8019L51.2346 9.70531C51.2981 9.63191 51.3138 9.52798 51.2747 9.43873L50.0183 6.56769C49.9792 6.47844 49.9949 6.37451 50.0584 6.30112L51.698 4.40746C51.7884 4.30307 51.9456 4.29249 52.0492 4.38382L54.9792 6.96796L57.9093 9.5521C58.0129 9.64342 58.0236 9.80208 57.9332 9.90646L56.2936 11.8001C56.23 11.8735 56.1301 11.9031 56.0372 11.876L53.0498 11.0042C52.9569 10.9771 52.8569 11.0067 52.7934 11.0801L49.2464 15.1767C49.156 15.2811 49.1667 15.4397 49.2702 15.531L52.7922 18.6372C52.8958 18.7285 52.9065 18.8872 52.8161 18.9916L51.1247 20.945C51.0906 20.9844 51.0452 21.012 50.9948 21.024L49.6787 21.3385C49.5124 21.3782 49.3567 21.2409 49.3734 21.0692L49.501 19.7595C49.5089 19.6787 49.4776 19.599 49.417 19.5456L48.1482 18.4266C48.0423 18.3332 47.8811 18.3466 47.792 18.4561L32.856 36.8273C32.8015 36.8944 32.7165 36.9283 32.6312 36.9169L30.6949 36.6585C30.5774 36.6428 30.487 36.5456 30.479 36.4262L30.3965 35.2005ZM30.3965 35.2005L45.4423 17.9827" stroke="white" stroke-width="1.5"/>
<path d="M73.517 40.5V23.0455H77.2074V30.2472H84.6989V23.0455H88.3807V40.5H84.6989V33.2898H77.2074V40.5H73.517ZM96.841 40.7557C95.4944 40.7557 94.3353 40.483 93.3638 39.9375C92.3978 39.3864 91.6535 38.608 91.1308 37.6023C90.6081 36.5909 90.3467 35.3949 90.3467 34.0142C90.3467 32.6676 90.6081 31.4858 91.1308 30.4688C91.6535 29.4517 92.3893 28.6591 93.3382 28.0909C94.2927 27.5227 95.412 27.2386 96.6961 27.2386C97.5598 27.2386 98.3638 27.3778 99.1081 27.6562C99.8581 27.929 100.511 28.3409 101.068 28.892C101.631 29.4432 102.068 30.1364 102.381 30.9716C102.693 31.8011 102.85 32.7727 102.85 33.8864V34.8835H91.7956V32.6335H99.4319C99.4319 32.1108 99.3183 31.6477 99.091 31.2443C98.8638 30.8409 98.5484 30.5256 98.145 30.2983C97.7473 30.0653 97.2842 29.9489 96.7558 29.9489C96.2047 29.9489 95.716 30.0767 95.2899 30.3324C94.8694 30.5824 94.5399 30.9205 94.3013 31.3466C94.0626 31.767 93.9405 32.2358 93.9348 32.7528V34.892C93.9348 35.5398 94.0541 36.0994 94.2927 36.571C94.537 37.0426 94.8808 37.4062 95.324 37.6619C95.7672 37.9176 96.2927 38.0455 96.9007 38.0455C97.3041 38.0455 97.6734 37.9886 98.0086 37.875C98.3439 37.7614 98.6308 37.5909 98.8694 37.3636C99.1081 37.1364 99.2899 36.858 99.4149 36.5284L102.773 36.75C102.602 37.5568 102.253 38.2614 101.725 38.8636C101.202 39.4602 100.526 39.9261 99.6961 40.2614C98.8723 40.5909 97.9206 40.7557 96.841 40.7557ZM104.739 40.5V27.4091H108.259V29.6932H108.395C108.634 28.8807 109.034 28.267 109.597 27.8523C110.159 27.4318 110.807 27.2216 111.54 27.2216C111.722 27.2216 111.918 27.233 112.128 27.2557C112.338 27.2784 112.523 27.3097 112.682 27.3494V30.571C112.512 30.5199 112.276 30.4744 111.975 30.4347C111.674 30.3949 111.398 30.375 111.148 30.375C110.614 30.375 110.137 30.4915 109.716 30.7244C109.301 30.9517 108.972 31.2699 108.728 31.679C108.489 32.0881 108.37 32.5597 108.37 33.0938V40.5H104.739ZM119.385 40.7557C118.061 40.7557 116.916 40.4744 115.95 39.9119C114.99 39.3437 114.248 38.554 113.725 37.5426C113.203 36.5256 112.941 35.3466 112.941 34.0057C112.941 32.6534 113.203 31.4716 113.725 30.4602C114.248 29.4432 114.99 28.6534 115.95 28.0909C116.916 27.5227 118.061 27.2386 119.385 27.2386C120.708 27.2386 121.85 27.5227 122.811 28.0909C123.777 28.6534 124.521 29.4432 125.044 30.4602C125.566 31.4716 125.828 32.6534 125.828 34.0057C125.828 35.3466 125.566 36.5256 125.044 37.5426C124.521 38.554 123.777 39.3437 122.811 39.9119C121.85 40.4744 120.708 40.7557 119.385 40.7557ZM119.402 37.9432C120.004 37.9432 120.507 37.7727 120.91 37.4318C121.314 37.0852 121.618 36.6136 121.822 36.017C122.032 35.4205 122.137 34.7415 122.137 33.9801C122.137 33.2188 122.032 32.5398 121.822 31.9432C121.618 31.3466 121.314 30.875 120.91 30.5284C120.507 30.1818 120.004 30.0085 119.402 30.0085C118.794 30.0085 118.282 30.1818 117.868 30.5284C117.458 30.875 117.149 31.3466 116.939 31.9432C116.734 32.5398 116.632 33.2188 116.632 33.9801C116.632 34.7415 116.734 35.4205 116.939 36.017C117.149 36.6136 117.458 37.0852 117.868 37.4318C118.282 37.7727 118.794 37.9432 119.402 37.9432ZM127.777 40.5V23.0455H134.663C135.987 23.0455 137.115 23.2983 138.047 23.804C138.978 24.304 139.689 25 140.177 25.892C140.672 26.7784 140.919 27.8011 140.919 28.9602C140.919 30.1193 140.669 31.142 140.169 32.0284C139.669 32.9148 138.944 33.6051 137.995 34.0994C137.052 34.5937 135.91 34.8409 134.569 34.8409H130.18V31.8835H133.973C134.683 31.8835 135.268 31.7614 135.728 31.517C136.194 31.267 136.541 30.9233 136.768 30.4858C137.001 30.0426 137.118 29.5341 137.118 28.9602C137.118 28.3807 137.001 27.875 136.768 27.4432C136.541 27.0057 136.194 26.6676 135.728 26.429C135.263 26.1847 134.672 26.0625 133.956 26.0625H131.467V40.5H127.777ZM146.149 40.7472C145.314 40.7472 144.569 40.6023 143.916 40.3125C143.263 40.017 142.746 39.5824 142.365 39.0085C141.99 38.429 141.802 37.7074 141.802 36.8438C141.802 36.1165 141.936 35.5057 142.203 35.0114C142.47 34.517 142.834 34.1193 143.294 33.8182C143.754 33.517 144.277 33.2898 144.862 33.1364C145.453 32.983 146.072 32.875 146.72 32.8125C147.481 32.733 148.095 32.6591 148.561 32.5909C149.027 32.517 149.365 32.4091 149.575 32.267C149.785 32.125 149.89 31.9148 149.89 31.6364V31.5852C149.89 31.0455 149.72 30.6278 149.379 30.3324C149.044 30.0369 148.567 29.8892 147.947 29.8892C147.294 29.8892 146.774 30.0341 146.388 30.3239C146.001 30.608 145.746 30.9659 145.621 31.3977L142.263 31.125C142.433 30.3295 142.768 29.642 143.268 29.0625C143.768 28.4773 144.413 28.0284 145.203 27.7159C145.998 27.3977 146.919 27.2386 147.964 27.2386C148.692 27.2386 149.388 27.3239 150.052 27.4943C150.723 27.6648 151.317 27.929 151.834 28.2869C152.356 28.6449 152.768 29.1051 153.069 29.6676C153.371 30.2244 153.521 30.892 153.521 31.6705V40.5H150.078V38.6847H149.976C149.765 39.0938 149.484 39.4545 149.132 39.767C148.78 40.0739 148.356 40.3153 147.862 40.4915C147.368 40.6619 146.797 40.7472 146.149 40.7472ZM147.189 38.2415C147.723 38.2415 148.194 38.1364 148.604 37.9261C149.013 37.7102 149.334 37.4205 149.567 37.0568C149.8 36.6932 149.916 36.2812 149.916 35.821V34.4318C149.802 34.5057 149.646 34.5739 149.447 34.6364C149.254 34.6932 149.035 34.7472 148.791 34.7983C148.547 34.8437 148.302 34.8864 148.058 34.9261C147.814 34.9602 147.592 34.9915 147.393 35.0199C146.967 35.0824 146.595 35.1818 146.277 35.3182C145.959 35.4545 145.712 35.6392 145.535 35.8722C145.359 36.0994 145.271 36.3835 145.271 36.7244C145.271 37.2188 145.45 37.5966 145.808 37.858C146.172 38.1136 146.632 38.2415 147.189 38.2415ZM160.682 40.7131C159.687 40.7131 158.787 40.4574 157.98 39.946C157.179 39.429 156.543 38.6705 156.071 37.6705C155.605 36.6648 155.372 35.4318 155.372 33.9716C155.372 32.4716 155.614 31.2244 156.097 30.2301C156.58 29.2301 157.222 28.483 158.023 27.9886C158.83 27.4886 159.713 27.2386 160.673 27.2386C161.406 27.2386 162.017 27.3636 162.506 27.6136C163 27.858 163.398 28.1648 163.699 28.5341C164.006 28.8977 164.239 29.2557 164.398 29.608H164.508V23.0455H168.131V40.5H164.551V38.4034H164.398C164.227 38.767 163.986 39.1278 163.673 39.4858C163.366 39.8381 162.966 40.1307 162.472 40.3636C161.983 40.5966 161.386 40.7131 160.682 40.7131ZM161.832 37.8239C162.418 37.8239 162.912 37.6648 163.315 37.3466C163.724 37.0227 164.037 36.571 164.253 35.9915C164.474 35.4119 164.585 34.733 164.585 33.9545C164.585 33.1761 164.477 32.5 164.261 31.9261C164.045 31.3523 163.733 30.9091 163.324 30.5966C162.915 30.2841 162.418 30.1278 161.832 30.1278C161.236 30.1278 160.733 30.2898 160.324 30.6136C159.915 30.9375 159.605 31.3864 159.395 31.9602C159.185 32.5341 159.08 33.1989 159.08 33.9545C159.08 34.7159 159.185 35.3892 159.395 35.9744C159.611 36.554 159.92 37.0085 160.324 37.3381C160.733 37.6619 161.236 37.8239 161.832 37.8239Z" fill="black"/>
</svg>
