<svg version="1.2" xmlns="http://www.w3.org/2000/svg" viewBox="0 0 256 256" width="256" height="256">
	<title>gluon-svg</title>
	<style>
		.s0 { fill: #d76c52 } 
	</style>
	<path class="s0" d="m170.3 8.2c9.9 9.1 16.6 21.5 18.3 34.9 0 5.2 0 5.2-0.7 13.3-3.2 0-6.4 0-9.6 0q-0.7-2.7-1.4-5.4c-0.6-2.4-1.2-4.7-1.8-7.2-0.6-2.3-1.1-4.6-1.7-7-2.3-6.7-5-11-9.5-16.3-12.9 0.3-19.8 5.5-28.9 13.9-9.9 11.1-18.5 24.1-21.4 38.8 2.1-0.5 4.3-1 6.5-1.5 40.2-8.9 81.3-15.5 118.8 5.5 5.4 4.2 6.1 8.5 7.3 15.1 0.8 11.9-0.7 18.2-8.6 27.3-5.8 6-11.7 11.3-18.6 15.9q-2.3 0-4.8 0c1.1-12.1 6.3-17.8 14.4-26.3q2.4 0 4.8 0c-0.1-8.2-0.1-8.2-2.4-16.8-12.8-9.3-26.5-8.3-41.6-8.1-2.6 0-5.2 0-7.8 0-21 0.4-40.5 2.8-60.9 8.1-2 0.4-4.1 0.8-6.3 1.3-7.1 1.9-11.8 4.1-15.6 10.5-5 13.6-6.7 27-2 40.9q4.7 2.5 9.6 4.8 5.3 4.7 10.4 9.6c24.3 22.1 59.9 53.4 94.3 52.9q2.9-0.1 5.8-0.1 2.2 0 4.5-0.1c4.7-9.3 2.4-18.9 0-28.7-10.7-26.4-27.3-50.1-47.9-69.6q-1.2-1.1-2.4-2.4c-14.6 0.4-28.8 3.2-42.9 6.7-5.1 0.5-5.1 0.5-12.3-4.3 0-2.3 0-4.7 0-7.1q9.1-2.5 18.2-4.8 2.5-0.7 5.1-1.4c10.8-2.8 20.7-4.8 31.9-3.4 5.4 4.3 5.4 4.3 9.9 10 1.6 2 3.2 4 4.8 6 1.5 1.9 3 3.7 4.4 5.5 2 2 4 3.9 6 5.9 13.8 14 25.9 29.3 34.8 46.9 1.4 2.5 2.8 5 4.2 7.6 4.9 12 4.6 25.2 3 37.9-5 8.8-7.2 11.2-16.8 14.4-34.1 3-58.7-7.2-86.3-26.4-3.9-2.6-3.9-2.6-8-5.3-13.4-8.9-25.9-17.9-36.9-29.9-3-3.4-3-3.4-7.8-5.5q0.4 11.3 0.9 22.6c0.1 2.1 0.1 4.2 0.2 6.4 0.6 14 2.7 26.9 6.1 40.5 14.8-2.2 23.9-5.3 34.5-16.2 3.8-3 3.8-3 13.4-3-4.1 15.2-15.9 25.1-28.7 33.4-9 3.2-14.5 4.3-24 2.6-13.9-10.1-20.6-27-24-43.2-1.6-18.1-0.8-36.3 2-54.2 1.1-8.9-0.2-13.1-5.4-20.4-2-2.3-4.1-4.5-6.2-6.9-10.6 3.4-16.4 8.7-23.9 16.8-1.2 1.2-1.2 1.2-2.4 2.4q1 8.4 2.4 16.8c7.9 3.1 15.8 6.3 23.9 9.6 0 2.3 0 4.7 0 7.2-15.6 0.8-25.7-0.5-38-11.1-4.3-9.1-4.2-17.5-2.7-27.3 6.2-12.5 16.3-21.6 26.4-31.1-2.4-8.4-2.4-8.4-4.8-16.8q-2.4 0-4.8 0c-13.5-35-13.5-35-9.6-52.8 5.7-7.1 5.7-7.1 12-11.9 1.5-1.6 3.1-3.2 4.8-4.8 21.5-2.5 41.9 4.8 59.9 16.7-0.8 2.4-1.6 4.8-2.4 7.2-18.3-4.5-18.3-4.5-26.4-7.2q-7.4-0.2-14.8-0.1c-2.6 0-5.2 0-7.9 0.1q-3 0-6 0c-0.9 13.4 1.6 22.8 7.7 34.5q1.1 2.2 2.2 4.6c4.2 8.3 4.2 8.3 11.6 13.6 9.7 0.1 16.6-3.3 24-9.5 4.2-6.9 7.5-13.9 10.8-21.3 5.3-11 12.6-19.8 20.4-29 1.8-2.5 3.6-4.9 5.5-7.4q2-2.3 4-4.6 2.4 0 4.8 0 0-2.4 0-4.8c14.6-9.7 25-13.2 42.4-7.5zm0.8 89c5.4 4.3 5.4 4.3 9.9 10 1.6 2 3.2 4 4.8 6 1.5 1.9 3 3.7 4.4 5.5 2 2 4 3.9 6 5.9 13.8 14 25.9 29.3 34.8 46.9 1.4 2.5 2.8 5 4.2 7.6 4.9 12 4.6 25.2 3 37.9-5 8.8-7.2 11.2-16.8 14.4-34.1 3-58.7-7.2-86.3-26.4-2.6-1.7-5.2-3.5-8-5.3-13.4-8.9-25.9-17.9-36.9-29.9-3-3.4-3-3.4-7.8-5.5q0.4 11.3 0.9 22.6c0.1 2.1 0.1 4.2 0.2 6.4 0.6 14 2.7 26.9 6.1 40.5 14.8-2.2 23.9-5.3 34.5-16.2 3.8-3 3.8-3 13.4-3-4.1 15.2-15.9 25.1-28.7 33.4-9 3.2-14.5 4.3-24 2.6-13.9-10.1-20.6-27-24-43.2-1.6-18.1-0.8-36.3 2-54.2 1.1-8.7-0.1-13-5-20.2-4.6-5.9-6.4-7-13.8-9.5q0-2.3 0-4.8c2.4 0 4.8 0 7.2 0q1.2-2.3 2.4-4.8c0 2.4 0 4.8 0 7.2 2.4 0.8 4.8 1.6 7.2 2.4q-1.2 1.2-2.4 2.4c2.4 1.6 4.8 3.2 7.2 4.8 1.7 6.3 1.7 6.3 2.4 12 2.4 0.8 4.8 1.6 7.2 2.4q0 2.4 0 4.8c2.7-0.6 5.4-1.2 8.2-1.8 12.9-1.5 21.8 2 32.5 9 6.7 5.7 13 11.7 19.3 17.7 19.5 17.1 49.3 37.9 75.9 37.6q2.9-0.1 5.8-0.1 2.2 0 4.5-0.1c4.7-9.3 2.4-18.9 0-28.7-10.7-26.4-27.3-50.1-47.9-69.6-1.2-1.1-1.2-1.1-2.4-2.4-14.6 0.4-28.8 3.2-42.9 6.7-5.1 0.5-5.1 0.5-12.3-4.3 0-2.3 0-4.7 0-7.1q9.1-2.5 18.2-4.8 2.5-0.7 5.1-1.4c10.8-2.8 20.7-4.8 31.9-3.4zm0 0c5.4 4.3 5.4 4.3 9.9 10 1.6 2 3.2 4 4.8 6 1.5 1.9 3 3.7 4.4 5.5 2 2 4 3.9 6 5.9 13.8 14 25.9 29.3 34.8 46.9 1.4 2.5 2.8 5 4.2 7.6 4.9 12 4.6 25.2 3 37.9-5 8.8-7.2 11.2-16.8 14.4-34.2 3-58.6-7.3-86.3-26.4-2.1-1.3-4.2-2.7-6.4-4.1-11.3-7.2-11.3-7.2-15.1-10.3q0-2.3 0-4.8c6.8 1.4 9.2 2.1 14.3 7.2 7.5-0.7 7.5-0.7 14.4-2.4 0-2.3 0-4.7 0-7.1 9.2 3.3 16.7 7.6 24.7 13 18.6 11.9 32.2 17.1 54.4 15.7 4.7-9.3 2.4-18.9 0-28.7-10.7-26.4-27.3-50.1-47.9-69.6q-1.2-1.1-2.4-2.4c-14.6 0.4-28.8 3.2-42.9 6.7-5.1 0.5-5.1 0.5-12.3-4.3 0-2.3 0-4.7 0-7.1q9.1-2.5 18.2-4.8 2.5-0.7 5.1-1.4c10.8-2.8 20.7-4.8 31.9-3.4zm-0.8-89c9.9 9.1 16.6 21.5 18.3 34.9 0 5.2 0 5.2-0.7 13.3-3.2 0-6.4 0-9.6 0q-0.7-2.7-1.4-5.4c-0.6-2.4-1.2-4.7-1.8-7.2-0.6-2.3-1.1-4.6-1.7-7-2.3-6.7-5-11-9.5-16.3-12.9 0.3-19.8 5.5-28.9 13.9-9.9 11.1-18.5 24.1-21.4 38.8 2.1-0.5 4.3-1 6.5-1.5 34.4-7.6 66.7-11.9 101.3-3.3-8.5 2.8-15.2 2.7-24.1 2.6-2.5 0-2.5 0-5 0q-7.8 0-15.7 0-5.3-0.1-10.6-0.1-13.1 0-26.1-0.1c1.2 3.6 1.2 3.6 2.4 7.2-25.3 3.6-25.3 3.6-35.9-2.4q0 2.4 0 4.8c-5.6 1.6-11.1 3.2-16.8 4.8q0 2.3 0 4.8c-16.2 9.6-16.2 9.6-21.6 9.6q0-2.4 0-4.8-2.3-1.2-4.8-2.4c2.9-1 5.8-2 8.7-3 12.5-6.2 15.8-15.7 21.3-27.9 5.3-11 12.6-19.8 20.4-29 1.8-2.5 3.6-4.9 5.5-7.4q2-2.3 4-4.6 2.4 0 4.8 0 0-2.4 0-4.8c14.6-9.7 25-13.2 42.4-7.5zm-92.7 156.1c1.9 6.6 2.7 12.6 2.9 19.5q0.1 2.8 0.2 5.7 0.2 5.8 0.3 11.6c0.5 11.4 1.8 18.3 8.6 27.9q0 2.4 0 4.8c14.9-2 24-5.4 34.5-16.2 3.8-3 3.8-3 13.4-3-4.1 15.2-15.9 25.1-28.7 33.4-9 3.2-14.5 4.3-24 2.6-13.8-10-20.7-27-24-43.2-1-13.6-0.5-27.1 0-40.7 11.4-2.4 11.4-2.4 16.8-2.4zm-34-142.5c17.9 0.3 36 8 50.8 17.8-0.8 2.4-1.6 4.8-2.4 7.2-18.3-4.5-18.3-4.5-26.4-7.2q-7.4-0.2-14.8-0.1c-2.6 0-5.2 0-7.9 0.1q-3 0-6 0c-0.9 13.4 1.6 22.6 7.7 34.2q1.1 2.2 2.2 4.4c4.3 8.4 8.3 14 16.4 19-3.1 0.8-6.3 1.6-9.6 2.4q-1.1-2.4-2.4-4.8c-4.8-2.7-4.8-2.7-9.6-4.8-0.5 2.1-0.5 2.1-1 4.3-1.1 4.2-2.4 8.3-3.7 12.5-1.6-4.8-3.2-9.5-4.8-14.4q-2.4 0-4.8 0c-13.5-35-13.5-35-9.6-52.8 5.7-7.1 5.7-7.1 12-11.9 4.8-4.8 4.8-4.8 13.9-5.9zm127.5 75.4c5.4 4.3 5.4 4.3 9.9 10 1.6 2 3.2 4 4.8 6 1.5 1.9 3 3.7 4.4 5.5 3 2.9 3 2.9 6 5.9 18.7 19.1 36.9 41.6 42 68.4-2 7.4-2 7.4-4.8 12q-1.2 0-2.4 0c0-5.5 0-11 0-16.8q-2.4 0-4.8 0c-1.2 2.4-1.2 2.4-2.4 4.8q-0.7-1.9-1.3-3.9c-10-27.3-26.7-61.1-51.4-77.6-5.3-0.2-5.3-0.2-11 0.6-2.1 0.3-4.2 0.5-6.3 0.8-8.7 1.4-17.1 3.2-25.6 5.3-5.1 0.5-5.1 0.5-12.3-4.3 0-2.3 0-4.7 0-7.1q9.1-2.5 18.2-4.8 2.5-0.7 5.1-1.4c10.8-2.8 20.7-4.8 31.9-3.4zm-0.8-89c9.9 9.1 16.6 21.5 18.3 34.9 0 5.2 0 5.2-0.7 13.3-3.2 0-6.4 0-9.6 0-0.7-2.7-0.7-2.7-1.4-5.4-0.6-2.4-1.2-4.7-1.8-7.2-0.9-3.5-0.9-3.5-1.7-7-2.3-6.7-5-11-9.5-16.3-14.5 0.7-22.8 7.8-33.6 16.7-0.8-3.1-1.6-6.3-2.4-9.5q-2.3 0-4.8 0c-0.6 2.2-1.1 4.4-1.8 6.7-3.1 8-5.3 10.5-12.5 14.8-1.7-4.1-1.7-4.1-2.4-9.6 3.2-5.1 3.2-5.1 7.9-10.1 1.5-1.7 3-3.4 4.6-5.2 4.2-3.8 4.2-3.8 9-3.8q0-2.4 0-4.8c14.6-9.7 25-13.2 42.4-7.5zm-63.9 67.4c5.9 1.2 5.9 1.2 11.9 2.4-3 9-6.1 10.2-14.3 14.4q-2.4 0-4.8 0 0 2.3 0 4.8-2.4 0-4.8 0c0 3.9 0 7.9 0 12-2.4 0.7-4.8 1.5-7.2 2.3 0.8 11.1 1.6 22.2 2.4 33.6-4.8 0-9.5 0-14.4 0 0.1-2.6 0.2-5.2 0.3-7.9 0.5-9.1 0.5-9.1-5.1-16.1q1.2 2.2 2.4 4.4c2.4 5.2 2.4 5.2 2.4 12.4q-2.4 0-4.8 0c-2.4-6.3-4.7-12.6-7.2-19.2 2.4-2.3 4.8-4.7 7.2-7.2q-2.3 0-4.8 0c0-2.3 0-4.7 0-7.1-3.1-0.8-6.3-1.6-9.6-2.4 3.2 0 6.4 0 9.6 0q1.2-2.4 2.4-4.8c7-3.3 14-5.5 21.6-7.2q0-2.4 0-4.8 2.3-0.5 4.6-0.9 2.5-0.8 5-1.5 1.2-2.4 2.4-4.8 2.3 1.2 4.8 2.4 0-2.4 0-4.8zm91-7.2c16.9-1.1 31.4 2.6 45.6 12 3.3 9.9 4.4 18.4 2.4 28.8-6.8 10.7-15.9 19.2-26.4 26.3q-2.3 0-4.8 0c1.1-12.1 6.3-17.8 14.4-26.3q2.4 0 4.8 0c-0.1-8.2-0.1-8.2-2.4-16.8-12.3-8.6-24.8-8.5-39.3-8.9-2.2 0-4.4-0.1-6.7-0.2q-8.2-0.3-16.3-0.5 0-1.2 0-2.4c19-1.2 19-1.2 38.3-2.4-0.8-2.4-1.6-4.8-2.4-7.2-2.3-0.8-4.7-1.6-7.2-2.4zm28.8 119.8q2.4 0 4.8 0c0.8 4.8 1.6 9.5 2.4 14.4 1.6-3.1 3.2-6.3 4.8-9.6 1.5 21.5 1.5 21.5-4.4 31.3-8.7 7.8-16.4 7.5-27.7 7.5-2.7 0.1-5.3 0.1-8.1 0.1-7.6-0.5-12.9-2.1-19.7-5.3 0.8-4 1.5-7.9 2.4-12 20.1-1.2 20.1-1.2 40.7-2.4 1.6-7.9 3.2-15.8 4.8-24zm-117.4-31.1c0.8 3.2 1.5 6.3 2.4 9.6q2.6-0.9 5.3-1.7c6.6-0.7 6.6-0.7 11.9 2.4 1.6 1.5 3.3 3 4.9 4.5 1.7 1.5 3.3 3 5 4.5 4.2 4.9 5.5 8 6.4 14.2-6 3.8-8.9 4.9-16 4.2q-2.7-0.8-5.6-1.8-1.1-2.3-2.4-4.8c-3.2-0.4-3.2-0.4-6.6-0.8-9.6-1.9-12.8-5.4-19.4-12.5-1.9-2-3.8-3.9-5.7-6q-2.1-2.3-4.2-4.6c2.4 0 4.7 0 7.2 0q2.3-1.8 4.8-3.6c4.8-3.6 4.8-3.6 12-3.6zm-65.2-135.3c17.9 0.3 36 8 50.8 17.8-0.8 2.4-1.6 4.8-2.4 7.2-18.3-4.5-18.3-4.5-26.4-7.2q-7.4-0.2-14.8-0.1c-2.6 0-5.2 0-7.9 0.1q-3 0-6 0c-0.8 5.6-1.6 11.1-2.4 16.8q-1.2 0-2.4 0c0-6.3 0-12.6 0-19.2-2.4 0-4.8 0-7.2 0 0 2.4 0 4.8 0 7.2q-2.4 0-4.8 0c0 6.4 0 12.7 0 19.2q-1.2 0-2.4 0c-1.9-21.6-1.9-21.6 5.7-31.1 2.1-1.6 4.1-3.2 6.3-4.8 4.8-4.8 4.8-4.8 13.9-5.9zm127.5 75.4c5.8 6 5.8 6 9.6 12q-2.4 0-4.8 0-1.2 2.3-2.4 4.7-1.2-1.1-2.4-2.4c-14.6 0.4-28.8 3.2-42.9 6.7-5.1 0.5-5.1 0.5-12.3-4.3 0-2.3 0-4.7 0-7.1q9.1-2.5 18.2-4.8 2.5-0.7 5.1-1.4c10.8-2.8 20.6-4.4 31.9-3.4zm-155.8 33.5c2.4 0 4.7 0 7.2 0 1.7 10.4 3.3 20.8 4.8 31.2 11.8 4.7 11.8 4.7 23.9 9.6 0 2.3 0 4.7 0 7.2-15.6 0.8-25.7-0.5-38-11.1-4.2-8.8-4-17.7-2.7-27.3 2.4-5.5 2.4-5.5 4.8-9.6zm189.3-59.9c1.2 3.6 1.2 3.6 2.4 7.2-2.3 0.1-2.3 0.1-4.7 0.1q-10.5 0.4-21 0.8c-3.7 0.1-3.7 0.1-7.4 0.2-2.4 0.1-4.7 0.2-7.1 0.3-3.3 0.1-3.3 0.1-6.6 0.2-6.2 0.8-10.1 2.6-15.5 5.6-5.6 0.5-5.6 0.5-11.4 0.3q-2.8-0.1-5.8-0.1-2.1-0.1-4.4-0.2c-0.8-2.4-1.5-4.8-2.4-7.2 6.4-0.8 12.7-1.6 19.2-2.4q0-2.4 0-4.8c48.4-5.4 48.4-5.4 64.7 0zm-76.7 143.8c3.2 0 6.4 0 9.6 0-3.7 13.8-14.3 24.3-26.3 31.6-5.4 2.2-9.2 2.5-15 2.3-4.5-0.2-4.5-0.2-9-0.3-1.4-4.7-1.4-4.7-2.4-9.6 2.4-2.4 2.4-2.4 9.6-2.7 13.5-1.6 24.2-11.9 33.5-21.3zm-21.5-139c5.9 1.2 5.9 1.2 11.9 2.4-3 9-6.1 10.2-14.3 14.4q-2.4 0-4.8 0 0 2.3 0 4.8-2.4 0-4.8 0c0 3.9 0 7.9 0 12q-6 0-12 0 0 2.3 0 4.7-2.4 0-4.8 0 0-2.3 0-4.7c-2.4 0-4.7 0-7.2 0 0-2.4 0-4.8 0-7.2 5.5-1.6 11.1-3.2 16.8-4.8-1.6-2.4-3.2-4.8-4.8-7.2 2.4 0 4.7 0 7.2 0q0-2.4 0-4.8 2.3-0.5 4.6-0.9 2.5-0.8 5-1.5 1.2-2.4 2.4-4.8 2.3 1.2 4.8 2.4 0-2.4 0-4.8zm-28.8 88.7c2.9 9 2.6 17.6 2.5 26.9 0 3.1 0 6.1 0 9.2 0 2.3-0.1 4.6-0.1 7-4.7-1.6-9.5-3.1-14.4-4.8 0-11.8 0-23.7 0-35.9 7.2-2.4 7.2-2.4 12-2.4zm143.8-95.9c-8.5 2.8-15.2 2.7-24.1 2.6-2.5 0-2.5 0-5 0q-7.8 0-15.7 0-5.3-0.1-10.6-0.1-13.1 0-26.1-0.1c0.8 2.4 1.6 4.7 2.4 7.2q-5.7 0.7-11.5 1.3c-2.2 0.3-4.3 0.5-6.5 0.8-6 0.3-6 0.3-13.1-2.1 0.7-3.2 1.5-6.3 2.4-9.6q0 2.4 0 4.8c3.2-0.7 3.2-0.7 6.5-1.5 34.4-7.6 66.7-11.9 101.3-3.3zm-9.6 88.7c7.8 0.6 10.2 2.9 15.9 8.5 6.8 8.8 8.9 16.5 10.5 27.4-2.1 7.2-2.1 7.2-4.8 12q-1.2 0-2.4 0c0-5.5 0-11 0-16.8q-2.4 0-4.8 0-1.2 2.4-2.4 4.8-2.3-5.6-4.6-11.2c-0.9-2.1-1.8-4.2-2.7-6.3-2.2-6.1-3.6-12-4.7-18.4zm21.6-74.3c2.4 0.8 4.7 1.6 7.2 2.4-0.8 3.9-1.6 7.9-2.4 12q2.3 0 4.8 0c0 2.3 0 4.7 0 7.2q-2.4 0-4.8 0 0.9 2.6 1.8 5.3c0.6 6.6 0.6 6.6-3.7 12-2 1.6-4 3.3-6.1 5-1.9 1.7-3.9 3.3-5.9 5-5.3 3.8-5.3 3.8-10.1 3.8 1.1-12.1 6.3-17.8 14.4-26.3q2.4 0 4.8 0c0-8.7 0-17.4 0-26.4zm-59.9-69.5c7.5 3.8 9.1 10.4 12.4 18 2.9 8.7 2.6 16 2 25.1-3.2 0-6.4 0-9.6 0q-1.8-6.3-3.5-12.6c-0.6-2.3-1.3-4.6-1.9-7q-2.2-8.2-4.2-16.3 2.3 0 4.8 0c0-2.4 0-4.8 0-7.2zm-134.2 88.7c4.7 7.2 4.7 7.2 4.7 14.9-3 11.4-8.6 17.6-16.7 25.8-1.6-1.6-3.2-3.2-4.8-4.8 0-2.4 0-4.7 0-7.2q-2.4-1.2-4.8-2.4 2-1.9 4.1-3.9c1.7-1.7 3.5-3.4 5.3-5.2 2.6-2.6 2.6-2.6 5.3-5.2 5-4.7 5-4.7 6.9-12zm119.8 93.4q1.2 2.4 2.4 4.8 7.1 3.8 14.4 7.2 0 2.4 0 4.8c-18.4 1.9-18.4 1.9-26.2-2.7-3.9-3.3-3.9-3.3-9.8-9.3 4.4-8.7 11.1-7.7 19.2-4.8zm-107.9-81.5c0.8 2.4 1.6 4.8 2.4 7.2 2.4 0.8 4.8 1.6 7.2 2.4q-1.2 1.2-2.4 2.4c2.4 1.6 4.8 3.2 7.2 4.8 1.5 5 1.5 5 2.4 10.7 1.4 8.5 3 12.5 9.6 18.1-2.4 0-4.7 0-7.2 0-0.8 2.4-1.6 4.7-2.4 7.2q-2.3 0-4.8 0 0.2-2.3 0.4-4.7c0.6-11.3 0.7-19.5-5.9-29-5.8-7.5-5.8-7.5-13.7-9.5q0-2.3 0-4.8c2.4 0 4.8 0 7.2 0q0-2.3 0-4.8zm-11.6-91.5c3 0.1 3 0.1 5.9 0.2 3 0 3 0 6 0.1 2.2 0.1 2.2 0.1 4.5 0.2q0 1.1 0 2.4c-6.3 0-12.6 0-19.1 0q0 2.3 0 4.8-2.4 0-4.8 0 0 2.3 0 4.8c7.9 0 15.8 0 23.9 0q0 1.1 0 2.3c-6.3 0.8-12.6 1.6-19.1 2.4-0.8 5.6-1.6 11.1-2.4 16.8q-1.2 0-2.4 0c0-6.3 0-12.6 0-19.2-2.4 0-4.8 0-7.2 0 0 2.4 0 4.8 0 7.2q-2.4 0-4.8 0c0 6.4 0 12.7 0 19.2q-1.2 0-2.4 0c-1.9-21.6-1.9-21.6 5.7-31.1 2.1-1.6 4.1-3.2 6.3-4.8 4.8-4.8 4.8-4.8 9.9-5.3zm196.2 170.6q1.2 0 2.4 0c1.5 21.5 1.5 21.5-4.4 31.3-8.7 7.8-16.4 7.5-27.7 7.5-2.7 0.1-5.3 0.1-8.1 0.1-7.6-0.5-12.9-2.1-19.7-5.3 10.4-3.5 20.7-2.5 31.6-2.3 7.7 0.1 13.7 0 21.1-2.5 1.6-9.5 3.2-19 4.8-28.8zm-122.2 45.6c-2.4 7.2-2.4 7.2-7.2 9.6-6.4 0.3-12.8 0.1-19.2 0-1.4-4.7-1.4-4.7-2.4-9.6 7.5-7.6 20.7-5.5 28.8 0zm67.1-24c6.3 0 12.6 0 19.1 0q1.2 2.4 2.4 4.8 8.4 1.5 16.8 2.4c-4.8 4.8-4.8 4.8-11.3 5.4-2.5 0-5.1 0-7.7 0-3.8 0-3.8 0-7.7 0-6.8-0.6-6.8-0.6-14-5.4 0.8-2.4 1.5-4.7 2.4-7.2zm-160.6-170.2q1.2 0 2.4 0 0.2 2.3 0.3 4.7 0.3 2.9 0.6 6 0.2 2.9 0.5 6 0.5 2.4 1 4.9 2.3 1.2 4.8 2.4c1.2 4.3 1.2 4.3 2.4 9.6q2.9 8.3 5.9 16.5c1.3 5.1 1.3 5.1-1.1 12.3-1.6-4.8-3.2-9.5-4.8-14.4q-2.4 0-4.8 0c-5.9-16.4-8.2-30.6-7.2-48zm93.5 131.9c3.1 0 6.3 0 9.5 0q0 2.3 0 4.8c6.4 0.7 12.7 1.5 19.2 2.4 0.8 2.3 1.6 4.7 2.4 7.1-5.6 3.6-8.9 4.9-15.6 4.7-7.9-3-10.9-7.2-15.5-14.2q0-2.4 0-4.8zm9.5-148.6q2.4 0 4.8 0c2.4 7.6 2.9 10.9-0.5 18.4-1.3 2-2.7 4.1-4.1 6.3-1.4 2.1-2.7 4.2-4.1 6.4q-1.6 2.4-3.3 4.8-2.3-1.2-4.7-2.4 0-2.3 0-4.8 2.3 0 4.7 0 0-2.3 0-4.8-2.3 0-4.7 0 5.9-12 11.9-23.9zm12-16.8q2.4 1.2 4.8 2.4c-1.7 1.6-3.4 3.1-5.2 4.8-6.7 6.6-11.2 14-15.8 22.1-3 4.2-3 4.2-10.1 9-1.7-4.1-1.7-4.1-2.4-9.6 3.2-5.1 3.2-5.1 7.9-10.1 1.5-1.7 3-3.4 4.6-5.2 4.2-3.8 4.2-3.8 9-3.8q0-2.4 0-4.8c2.4-1.6 4.8-3.2 7.2-4.8zm-100.6 45.5c5.8 8.8 10.4 18 15.2 27.4 3.9 6.2 7.4 9.4 13.5 13.4-3.1 0.8-6.3 1.6-9.6 2.4q-1.1-2.4-2.4-4.8c-2.3-0.8-4.7-1.6-7.2-2.4 0-4 0-7.9 0-12q-2.3 0-4.7 0c-3.2-8.7-4.8-14.6-4.8-24zm7.1 31.2q1.2 2.3 2.4 4.8c4.9 1.5 4.9 1.5 9.6 2.4q0 2.3 0 4.8c4.8-1.6 9.5-3.2 14.4-4.8-0.8 2.3-1.6 4.7-2.4 7.2-7.1 0-14.2 0-21.6 0q-1.1 2.3-2.4 4.8c-4.7-7.2-4.7-7.2-4-12.3 1.7-4.5 1.7-4.5 4-6.9zm-16.7-50.4c2.3 0 4.7 0 7.2 0 0.8 9.5 1.5 19 2.4 28.8-1.6-1.6-3.2-3.2-4.8-4.8-2.4 0-4.8 0-7.2 0-0.3-15.9-0.3-15.9 2.4-24zm59.9 187c1.6 3.2 3.2 6.3 4.8 9.6 4.7 0 9.5 0 14.4 0q0 1.2 0 2.4c-5.6 0.8-11.1 1.6-16.8 2.4 0 2.4 0 4.7 0 7.2 7.1 1.2 7.1 1.2 14.4 2.4q0 1.1 0 2.4c-5.6 0-11.1 0-16.8 0-2.9-5.6-5.2-10.8-7.2-16.8 4.8-7.2 4.8-7.2 7.2-9.6zm4.8-98.3q1.2 0 2.4 0c0.9 4.6 0.9 4.6 1.8 9.3 1.8 8.1 1.8 8.1 8.1 13.5q2.2 0.6 4.5 1.2c-1.6 1.6-3.2 3.2-4.8 4.8q0-2.4 0-4.8c-5.6-0.8-11.1-1.6-16.8-2.4q-1.2 2.4-2.4 4.8c-2.4-0.8-4.8-1.6-7.2-2.4q0-2.4 0-4.8c4.8 0 9.5 0 14.4 0q-0.7-2.1-1.4-4.2c-1.1-5.9-0.4-9.3 1.4-15zm26.3 31.2c2.4 3.5 2.4 3.5 4.8 7.2-3.1 0.8-6.3 1.6-9.5 2.4-0.8-3.2-1.6-6.4-2.4-9.6-4 1.6-7.9 3.2-12 4.8q0 2.3 0 4.8c-2.4-0.8-4.8-1.6-7.2-2.4-0.8-2.4-1.6-4.8-2.4-7.2 11.3-4 18.1-6.4 28.7 0zm-2.3 28.7c6.8 1.4 9.2 2.1 14.3 7.2 4.8 0.1 4.8 0.1 9.9-0.9 3.1-0.5 6.2-0.9 9.3-1.5q1.2 2.4 2.4 4.8c-7.2 4.8-7.2 4.8-12 7.2q0-2.3 0-4.8-1.9 0.9-3.9 1.8c-8.9 1-13.3-3.6-20-9q0-2.3 0-4.8zm-40.8-153.3c9 1.1 13.9 2.1 21.6 7.1-0.8 2.4-1.6 4.8-2.4 7.2-6.3-1.5-12.7-3.1-19.2-4.8q0-4.8 0-9.5zm50.3 74.3c6.9-0.5 6.9-0.5 14.4 0 1.6 2.3 3.2 4.7 4.8 7.1-10.6 5.1-10.6 5.1-17.5 3.9q-2-0.7-4.1-1.5c0.8-3.1 1.6-6.3 2.4-9.5zm100.7 100.6c0.8 3.2 1.6 6.3 2.4 9.6q-2.4 0-4.8 0 0 2.4 0 4.8c-6.3 0-12.6 0-19.2 0-0.8-2.4-1.5-4.7-2.4-7.2q2.3-0.2 4.7-0.3 2.9-0.3 6-0.6 2.9-0.2 6-0.5 2.4-0.5 4.9-1 1.2-2.3 2.4-4.8zm-81.5-23.9c8.9 3.2 16.7 7.3 24.7 12.2 2.1 1.3 4.3 2.6 6.4 3.9q2.4 1.5 4.9 3c-8.9 2.7-8.9 2.7-15 0.2q-2.1-1.3-4.2-2.6 0-2.3 0-4.8-2.8-0.3-5.7-0.6c-6.3-1.8-6.3-1.8-9.4-6.7q-0.8-2.3-1.7-4.6zm-64.7-19.2c-0.8 9.5-1.6 19-2.4 28.7-5.7-5.7-5.6-7.9-6.3-15.8q-0.3-3-0.5-6-0.2-2.2-0.4-4.5c4.8-2.4 4.8-2.4 9.6-2.4zm31.2-7.2c0.8 4.7 1.5 9.5 2.4 14.4-2.4 0.8-4.8 1.6-7.2 2.4-4.8-4.8-4.8-4.8-9.6-12 7.2-4.8 7.2-4.8 14.4-4.8zm124.6-74.3c2.4 0.8 4.7 1.6 7.2 2.4-0.8 3.9-1.6 7.9-2.4 12q2.3 0 4.8 0c0 2.3 0 4.7 0 7.2q-2.4 0-4.8 0c-0.8 3.9-1.6 7.9-2.4 11.9-2.4-0.7-4.8-1.5-7.2-2.4q0-2.3 0-4.7 2.4 0 4.8 0c0-8.7 0-17.4 0-26.4zm-201.3 38.3c0.8 13.3 0.8 13.3-3.6 18.9-1.8 1.3-1.8 1.3-3.6 2.7q-0.5-2.9-0.9-5.8c-0.8-3.1-0.8-3.1-1.5-6.2q-2.4-1.2-4.8-2.4c6.3-7.2 6.3-7.2 14.4-7.2zm122.2-23.9c7.8-0.8 7.8-0.8 16.8 0 5.8 6 5.8 6 9.6 12q-2.4 0-4.8 0-1.2 2.3-2.4 4.7c-6-2.3-6-2.3-12-4.7 2.4-3.2 4.7-6.4 7.2-9.6-4.8 0-9.5 0-14.4 0q0-1.2 0-2.4zm81.5-19.2c2.4 0.8 4.7 1.6 7.2 2.4 2.3 6.9 2.6 11.3 2.5 18.4q0 2.9 0 5.9-0.1 2.2-0.1 4.5c-2.4 0-4.8 0-7.2 0q0-2.4 0-4.8 2.3 0 4.8 0c0-2.4 0-4.8 0-7.2q-2.4 0-4.8 0 0.1-2.8 0.1-5.6c0.2-6.7 0.2-6.7-2.5-13.6zm-107.9 136.6c3.2 0 6.4 0 9.6 0-3 8.8-4 11.5-12 16.8-1.5-5.7-1.5-5.7-2.4-12 1.6-1.6 3.2-3.2 4.8-4.8zm40.8-12c2.4 1.6 4.7 3.2 7.2 4.8q0 2.4 0 4.8c-15.7 0.9-15.7 0.9-21.5-3.6-1.2-1.8-1.2-1.8-2.5-3.6 6.1-3 10.1-2.9 16.8-2.4zm-136.6-33.5c6.3 0.8 12.6 1.6 19.1 2.4 0 2.3 0 4.7 0 7.2-4.7 0-9.5 0-14.3 0q0-2.4 0-4.8-2.4 0-4.8 0 0-2.4 0-4.8zm31.1-21.6q2.4 0 4.8 0 5 5.8 9.6 12c-2.4 0-4.7 0-7.2 0-0.8 2.4-1.6 4.7-2.4 7.2q-2.3 0-4.8 0c0-6.4 0-12.7 0-19.2zm21.6 0c5.5 0.8 11.1 1.6 16.8 2.4q0 2.4 0 4.8c-5.6 1.6-11.1 3.2-16.8 4.8-0.8-2.4-1.6-4.8-2.4-7.2q1.2-2.4 2.4-4.8zm2.4 88.7c6.3 0.8 12.6 1.6 19.2 2.4-0.8 2.4-1.6 4.7-2.4 7.2-13.8 0.3-13.8 0.3-19.2-2.4 0.8-2.4 1.6-4.8 2.4-7.2zm33.5-71.9q4.8 3.4 9.5 6.9c1.7 1.2 3.5 2.5 5.3 3.8 4.4 3.7 4.4 3.7 6.8 8.5-3.9-0.8-7.9-1.6-12-2.4q0-2.4 0-4.8c-3.1-1.6-6.3-3.2-9.6-4.8 0-2.4 0-4.8 0-7.2zm76.7-95.9c14.3-0.9 25.1 2.2 38.4 7.2-9 3.3-15.5 1.4-24.6-1.1-3.9-1-3.9-1-7.8-2-3-0.9-3-0.9-6-1.7q0-1.2 0-2.4zm-155.8-40.7c9.4 1.2 15.4 2.8 24 7.2-11.1 0-22.1 0-33.5 0 3.1-0.8 6.3-1.6 9.5-2.4q0-2.4 0-4.8zm134.3 81.5c9.1 3.7 14.8 9.6 21.5 16.7-5.4 0.8-5.4 0.8-11.9 0-9.6-9.8-9.6-9.8-9.6-16.7zm-146.2-50.4c0.8 2.4 1.5 4.8 2.4 7.2q2.3 0 4.8 0c-0.8 3.2-1.6 6.3-2.4 9.6-2.4 0-4.8 0-7.2 0-0.8-4.7-1.6-9.5-2.4-14.4q2.3-1.2 4.8-2.4zm196.5 110.3c10.2 6.7 9.5 12.2 12 23.9q-2.4 0-4.8 0-4.8-9.5-9.6-19.1 1.2-2.4 2.4-4.8zm-19.2-21.6c4.5 0.6 4.5 0.6 9.6 2.4 3 4.9 3 4.9 4.8 9.6-3.9 0-7.9 0-12 0-0.8-4-1.6-7.9-2.4-12zm-91.1-67.1c2.4 0.8 4.8 1.6 7.2 2.4 0.8 2.4 1.6 4.7 2.4 7.2-4.7 0.8-9.5 1.6-14.3 2.4-0.8-2.4-1.6-4.8-2.4-7.2 2.3 0 4.7 0 7.1 0q0-2.4 0-4.8zm67.2-12q0 1.2 0 2.4c-6.4 1.6-12.7 3.2-19.2 4.8q0 2.4 0 4.8c-2.4-0.8-4.8-1.6-7.2-2.4 0-2.4 0-4.8 0-7.2 8.8-2.8 17.2-2.6 26.4-2.4zm-79.1-24c1.9 4.1 1.9 4.1 2.4 9.6-5.9 6.6-5.9 6.6-12 12 0-9.6 4.1-13.9 9.6-21.6zm14.3-11.9c0.8 2.3 1.6 4.7 2.4 7.1-3.9 3.2-7.9 6.4-11.9 9.6-0.8-3.1-1.6-6.3-2.4-9.6 3.9-2.3 7.9-4.7 11.9-7.1zm69.6 91c5.8 1.7 5.8 1.7 11.9 4.8 2 6.3 2 6.3 2.4 12-8.1-2.7-9.8-4.9-14.3-12q0-2.3 0-4.8zm-141.5-31.1c2.4 0.8 4.8 1.6 7.2 2.4q0 2.3 0 4.8c4.8-1.6 9.5-3.2 14.4-4.8-0.8 2.3-1.6 4.7-2.4 7.2-5.5 0-11.1 0-16.8 0-0.8-3.2-1.5-6.4-2.4-9.6zm74.3-14.4c6.4 0 12.7 0 19.2 0-2.8 3.7-2.8 3.7-7.2 7.2-6.4-0.8-6.4-0.8-12-2.4q0-2.4 0-4.8zm-103 52.7q2.3 0 4.8 0c0.8 4.8 1.6 9.5 2.4 14.4-3.2 0.8-6.4 1.6-9.6 2.4 0.8-5.5 1.6-11.1 2.4-16.8zm62.3-4.8c2.4 0 4.7 0 7.2 0 0 5.6 0 11.1 0 16.8-2.4 0-4.8 0-7.2 0 0-5.5 0-11.1 0-16.8zm-9.6 100.7c2.4 0.8 4.8 1.6 7.2 2.4 2.8 7.3 2.8 7.3 4.8 14.4-4.6-1.7-4.6-1.7-9.6-4.8-1.8-6.3-1.8-6.3-2.4-12zm36-74.3c11.6 6.6 11.6 6.6 14.3 12-3.1 0.8-6.3 1.6-9.5 2.4-1.6-4.8-3.2-9.5-4.8-14.4zm56.4-52.9c2.9 0.1 2.9 0.1 5.9 0.2q0 2.3 0 4.8c-7.9 0.7-15.8 1.5-24 2.4 3.2-1.6 6.3-3.2 9.6-4.8 2.4-2.4 2.4-2.4 8.5-2.6z"/>
</svg>