<svg version="1.2" xmlns="http://www.w3.org/2000/svg" viewBox="0 0 193 193" width="193" height="193"><style>.a{fill:#231f20}.b{fill:#fff}.c{fill:none;stroke:#231f20;stroke-miterlimit:2.6131;stroke-width:.7}</style><path class="a" d="m28.6 116.3c-0.3-3.6-2.2-5.3-5.8-5.3-2.7 0-5.5 1.5-5.5 4.5 0 3.8 3.4 4.2 6.4 4.8 5.3 1.4 13.1 2.9 13.1 9.9 0 8-6.5 11.2-13.4 11.6h-3.2c-6.8-0.4-11.5-3.4-11.7-10.8v-1.1h7.6c-0.3 3.9 1.9 6.5 5.8 6.5 3 0 7-0.9 7-4.6 0-4.1-5-4.4-8-5.2-4.9-1.2-11.5-3.4-11.5-9.5 0-8 7.3-11.5 14.4-11.5 6.8 0 12.1 3.7 12.1 10.7z"/><path fill-rule="evenodd" class="a" d="m50.7 141.8c-7.1-0.6-11.3-5.6-11.3-12.8 0-7.6 4.7-12.8 12.6-12.8 7.9 0 12.6 5.2 12.6 12.8 0 7.2-4.2 12.2-11.3 12.8zm1.4-4.8c4.4 0 5.1-4.1 5.1-8 0-3.8-0.7-8-5.1-8-4.4 0-5.2 4.2-5.2 8 0 3.9 0.8 8 5.2 8z"/><path class="a" d="m80.9 110.4c-5.1-0.6-5.2 1.7-5 6.5h4.4v4.8h-4.4v19.5h-7.2v-19.5h-3.6v-4.8h3.6c-0.2-6.9 0.4-11.3 8.3-11.3 1.3 0 2.6 0.1 3.9 0.3z"/><path class="a" d="m87 116.9v-4.8l7.2-2.6v7.4h5.5v4.8h-5.5v11.3c0 3.1 0.5 4 3 4 0.8 0 1.5-0.1 2.3-0.1v4.2c-0.6 0.3-3 0.6-4.6 0.7h-2.3c-4.6-0.4-5.6-3.3-5.6-8.2v-11.9h-4.9v-4.8z"/><path class="a" d="m106.7 116.9v-4.8l7.2-2.6v7.4h5.5v4.8h-5.5v11.3c0 3.1 0.5 4 3 4 0.8 0 1.6-0.1 2.3-0.1v4.2c-0.6 0.3-3 0.6-4.5 0.7h-2.4c-4.6-0.4-5.6-3.3-5.6-8.2v-11.9h-4.9v-4.8z"/><path fill-rule="evenodd" class="a" d="m130.9 141.8c-7.2-0.5-10.1-5.1-10.1-12.7 0-7.3 4.2-12.9 11.6-12.9 4.6 0 8.3 1.5 10.3 5.8 0.7 1.3 1.1 2.8 1.3 4.3 0.1 1.5 0.1 3.1 0.1 4.7h-15.9c0 3.1 0.5 6 4.2 6 2.5 0 3.8-0.9 4.5-3.1h6.5c-0.6 5.4-4.5 7.6-9.5 7.9zm5.8-15.7c0-2.6-0.7-5.1-4.3-5.1-3.3 0-4.1 2.5-4.2 5.1z"/><path class="a" d="m154.4 126.7l0.1 0.1 7.1-10.2h8l-8.3 10.7 8.9 13.9h-8.5l-7.2-13.3-0.1 0.1v13.2h-7.3v-34.9h7.3z"/><path class="b" d="m118.5 53.8c0-1.3 1.1-2.4 2.4-2.4 1.3 0 2.3 1.1 2.3 2.4 0 1.3-1 2.4-2.3 2.4-1.3 0-2.4-1.1-2.4-2.4z"/><path fill-rule="evenodd" class="c" d="m118.5 53.8c0-1.3 1.1-2.4 2.4-2.4 1.3 0 2.3 1.1 2.3 2.4 0 1.3-1 2.4-2.3 2.4-1.3 0-2.4-1.1-2.4-2.4z"/><path class="b" d="m118.1 101.9c0-1.3 1-2.4 2.4-2.4 1.3 0 2.3 1.1 2.3 2.4 0 1.3-1 2.4-2.3 2.4-1.4 0-2.4-1.1-2.4-2.4z"/><path fill-rule="evenodd" class="c" d="m118.1 101.9c0-1.3 1-2.4 2.4-2.4 1.3 0 2.3 1.1 2.3 2.4 0 1.3-1 2.4-2.3 2.4-1.4 0-2.4-1.1-2.4-2.4z"/><path class="b" d="m132 101.9c0-1.3 1.1-2.4 2.4-2.4 1.3 0 2.4 1.1 2.4 2.4 0 1.3-1.1 2.4-2.4 2.4-1.3 0-2.4-1.1-2.4-2.4z"/><path fill-rule="evenodd" class="c" d="m132 101.9c0-1.3 1.1-2.4 2.4-2.4 1.3 0 2.4 1.1 2.4 2.4 0 1.3-1.1 2.4-2.4 2.4-1.3 0-2.4-1.1-2.4-2.4z"/><path class="b" d="m132.5 53.8c0-1.3 1-2.4 2.3-2.4 1.3 0 2.4 1.1 2.4 2.4 0 1.3-1.1 2.4-2.4 2.4-1.3 0-2.3-1.1-2.3-2.4z"/><path fill-rule="evenodd" class="c" d="m132.5 53.8c0-1.3 1-2.4 2.3-2.4 1.3 0 2.4 1.1 2.4 2.4 0 1.3-1.1 2.4-2.4 2.4-1.3 0-2.3-1.1-2.3-2.4z"/><path class="b" d="m102.6 89.9c0-1.3 1-2.4 2.3-2.4 1.3 0 2.4 1.1 2.4 2.4 0 1.3-1.1 2.4-2.4 2.4-1.3 0-2.3-1.1-2.3-2.4z"/><path fill-rule="evenodd" class="c" d="m102.6 89.9c0-1.3 1-2.4 2.3-2.4 1.3 0 2.4 1.1 2.4 2.4 0 1.3-1.1 2.4-2.4 2.4-1.3 0-2.3-1.1-2.3-2.4z"/><path class="b" d="m109.5 89.9c0-1.3 1.1-2.4 2.4-2.4 1.3 0 2.4 1.1 2.4 2.4 0 1.3-1.1 2.4-2.4 2.4-1.3 0-2.4-1.1-2.4-2.4z"/><path fill-rule="evenodd" class="c" d="m109.5 89.9c0-1.3 1.1-2.4 2.4-2.4 1.3 0 2.4 1.1 2.4 2.4 0 1.3-1.1 2.4-2.4 2.4-1.3 0-2.4-1.1-2.4-2.4z"/><path class="b" d="m116.5 89.9c0-1.3 1.1-2.4 2.4-2.4 1.3 0 2.3 1.1 2.3 2.4 0 1.3-1 2.4-2.3 2.4-1.3 0-2.4-1.1-2.4-2.4z"/><path fill-rule="evenodd" class="c" d="m116.5 89.9c0-1.3 1.1-2.4 2.4-2.4 1.3 0 2.3 1.1 2.3 2.4 0 1.3-1 2.4-2.3 2.4-1.3 0-2.4-1.1-2.4-2.4z"/><path class="b" d="m123.5 89.9c0-1.3 1-2.4 2.4-2.4 1.3 0 2.3 1.1 2.3 2.4 0 1.3-1 2.4-2.3 2.4-1.4 0-2.4-1.1-2.4-2.4z"/><path fill-rule="evenodd" class="c" d="m123.5 89.9c0-1.3 1-2.4 2.4-2.4 1.3 0 2.3 1.1 2.3 2.4 0 1.3-1 2.4-2.3 2.4-1.4 0-2.4-1.1-2.4-2.4z"/><path class="b" d="m137.4 89.9c0-1.3 1.1-2.4 2.4-2.4 1.3 0 2.4 1.1 2.4 2.4 0 1.3-1.1 2.4-2.4 2.4-1.3 0-2.4-1.1-2.4-2.4z"/><path fill-rule="evenodd" class="c" d="m137.4 89.9c0-1.3 1.1-2.4 2.4-2.4 1.3 0 2.4 1.1 2.4 2.4 0 1.3-1.1 2.4-2.4 2.4-1.3 0-2.4-1.1-2.4-2.4z"/><path class="b" d="m144.4 89.9c0-1.3 1.1-2.4 2.4-2.4 1.3 0 2.3 1.1 2.3 2.4 0 1.3-1 2.4-2.3 2.4-1.3 0-2.4-1.1-2.4-2.4z"/><path fill-rule="evenodd" class="c" d="m144.4 89.9c0-1.3 1.1-2.4 2.4-2.4 1.3 0 2.3 1.1 2.3 2.4 0 1.3-1 2.4-2.3 2.4-1.3 0-2.4-1.1-2.4-2.4z"/><path class="b" d="m107.9 95.9c0-1.3 1-2.4 2.4-2.4 1.3 0 2.3 1.1 2.3 2.4 0 1.3-1 2.4-2.3 2.4-1.4 0-2.4-1.1-2.4-2.4z"/><path fill-rule="evenodd" class="c" d="m107.9 95.9c0-1.3 1-2.4 2.4-2.4 1.3 0 2.3 1.1 2.3 2.4 0 1.3-1 2.4-2.3 2.4-1.4 0-2.4-1.1-2.4-2.4z"/><path class="b" d="m114.9 95.9c0-1.3 1-2.4 2.3-2.4 1.3 0 2.4 1.1 2.4 2.4 0 1.3-1.1 2.4-2.4 2.4-1.3 0-2.3-1.1-2.3-2.4z"/><path fill-rule="evenodd" class="c" d="m114.9 95.9c0-1.3 1-2.4 2.3-2.4 1.3 0 2.4 1.1 2.4 2.4 0 1.3-1.1 2.4-2.4 2.4-1.3 0-2.3-1.1-2.3-2.4z"/><path class="b" d="m121.8 95.9c0-1.3 1.1-2.4 2.4-2.4 1.3 0 2.4 1.1 2.4 2.4 0 1.3-1.1 2.4-2.4 2.4-1.3 0-2.4-1.1-2.4-2.4z"/><path fill-rule="evenodd" class="c" d="m121.8 95.9c0-1.3 1.1-2.4 2.4-2.4 1.3 0 2.4 1.1 2.4 2.4 0 1.3-1.1 2.4-2.4 2.4-1.3 0-2.4-1.1-2.4-2.4z"/><path class="b" d="m135.8 95.9c0-1.3 1-2.4 2.4-2.4 1.3 0 2.3 1.1 2.3 2.4 0 1.3-1 2.4-2.3 2.4-1.4 0-2.4-1.1-2.4-2.4z"/><path fill-rule="evenodd" class="c" d="m135.8 95.9c0-1.3 1-2.4 2.4-2.4 1.3 0 2.3 1.1 2.3 2.4 0 1.3-1 2.4-2.3 2.4-1.4 0-2.4-1.1-2.4-2.4z"/><path class="b" d="m142.8 95.9c0-1.3 1-2.4 2.3-2.4 1.3 0 2.4 1.1 2.4 2.4 0 1.3-1.1 2.4-2.4 2.4-1.3 0-2.3-1.1-2.3-2.4z"/><path fill-rule="evenodd" class="c" d="m142.8 95.9c0-1.3 1-2.4 2.3-2.4 1.3 0 2.4 1.1 2.4 2.4 0 1.3-1.1 2.4-2.4 2.4-1.3 0-2.3-1.1-2.3-2.4z"/><path class="b" d="m104.8 77.9c0-1.3 1.1-2.4 2.4-2.4 1.3 0 2.4 1.1 2.4 2.4 0 1.3-1.1 2.3-2.4 2.3-1.3 0-2.4-1-2.4-2.3z"/><path fill-rule="evenodd" class="c" d="m104.8 77.9c0-1.3 1.1-2.4 2.4-2.4 1.3 0 2.4 1.1 2.4 2.4 0 1.3-1.1 2.3-2.4 2.3-1.3 0-2.4-1-2.4-2.3z"/><path class="b" d="m111.8 77.9c0-1.3 1.1-2.4 2.4-2.4 1.3 0 2.4 1.1 2.4 2.4 0 1.3-1.1 2.3-2.4 2.3-1.3 0-2.4-1-2.4-2.3z"/><path fill-rule="evenodd" class="c" d="m111.8 77.9c0-1.3 1.1-2.4 2.4-2.4 1.3 0 2.4 1.1 2.4 2.4 0 1.3-1.1 2.3-2.4 2.3-1.3 0-2.4-1-2.4-2.3z"/><path class="b" d="m118.8 77.9c0-1.3 1.1-2.4 2.4-2.4 1.3 0 2.3 1.1 2.3 2.4 0 1.3-1 2.3-2.3 2.3-1.3 0-2.4-1-2.4-2.3z"/><path fill-rule="evenodd" class="c" d="m118.8 77.9c0-1.3 1.1-2.4 2.4-2.4 1.3 0 2.3 1.1 2.3 2.4 0 1.3-1 2.3-2.3 2.3-1.3 0-2.4-1-2.4-2.3z"/><path class="b" d="m132.7 77.9c0-1.3 1.1-2.4 2.4-2.4 1.3 0 2.4 1.1 2.4 2.4 0 1.3-1.1 2.3-2.4 2.3-1.3 0-2.4-1-2.4-2.3z"/><path fill-rule="evenodd" class="c" d="m132.7 77.9c0-1.3 1.1-2.4 2.4-2.4 1.3 0 2.4 1.1 2.4 2.4 0 1.3-1.1 2.3-2.4 2.3-1.3 0-2.4-1-2.4-2.3z"/><path class="b" d="m139.7 77.9c0-1.3 1.1-2.4 2.4-2.4 1.3 0 2.4 1.1 2.4 2.4 0 1.3-1.1 2.3-2.4 2.3-1.3 0-2.4-1-2.4-2.3z"/><path fill-rule="evenodd" class="c" d="m139.7 77.9c0-1.3 1.1-2.4 2.4-2.4 1.3 0 2.4 1.1 2.4 2.4 0 1.3-1.1 2.3-2.4 2.3-1.3 0-2.4-1-2.4-2.3z"/><path class="b" d="m146.7 77.9c0-1.3 1.1-2.4 2.4-2.4 1.3 0 2.3 1.1 2.3 2.4 0 1.3-1 2.3-2.3 2.3-1.3 0-2.4-1-2.4-2.3z"/><path fill-rule="evenodd" class="c" d="m146.7 77.9c0-1.3 1-2.4 2.4-2.4 1.3 0 2.3 1.1 2.3 2.4 0 1.3-1 2.3-2.3 2.3-1.4 0-2.4-1-2.4-2.3z"/><path class="b" d="m101.5 83.9c0-1.4 1-2.4 2.3-2.4 1.4 0 2.4 1 2.4 2.4 0 1.3-1 2.3-2.4 2.3-1.3 0-2.3-1-2.3-2.3z"/><path fill-rule="evenodd" class="c" d="m101.5 83.9c0-1.4 1-2.4 2.3-2.4 1.4 0 2.4 1 2.4 2.4 0 1.3-1 2.3-2.4 2.3-1.3 0-2.3-1-2.3-2.3z"/><path class="b" d="m108.5 83.9c0-1.4 1-2.4 2.3-2.4 1.3 0 2.4 1 2.4 2.4 0 1.3-1.1 2.3-2.4 2.3-1.3 0-2.3-1-2.3-2.3z"/><path fill-rule="evenodd" class="c" d="m108.5 83.9c0-1.4 1-2.4 2.3-2.4 1.3 0 2.4 1 2.4 2.4 0 1.3-1.1 2.3-2.4 2.3-1.3 0-2.3-1-2.3-2.3z"/><path class="b" d="m115.4 83.9c0-1.4 1.1-2.4 2.4-2.4 1.3 0 2.4 1 2.4 2.4 0 1.3-1.1 2.3-2.4 2.3-1.3 0-2.4-1-2.4-2.3z"/><path fill-rule="evenodd" class="c" d="m115.4 83.9c0-1.4 1.1-2.4 2.4-2.4 1.3 0 2.4 1 2.4 2.4 0 1.3-1.1 2.3-2.4 2.3-1.3 0-2.4-1-2.4-2.3z"/><path class="b" d="m122.4 83.9c0-1.4 1.1-2.4 2.4-2.4 1.3 0 2.3 1 2.3 2.4 0 1.3-1 2.3-2.3 2.3-1.3 0-2.4-1-2.4-2.3z"/><path fill-rule="evenodd" class="c" d="m122.4 83.9c0-1.4 1.1-2.4 2.4-2.4 1.3 0 2.3 1 2.3 2.4 0 1.3-1 2.3-2.3 2.3-1.3 0-2.4-1-2.4-2.3z"/><path class="b" d="m136.4 83.9c0-1.4 1-2.4 2.3-2.4 1.3 0 2.4 1 2.4 2.4 0 1.3-1.1 2.3-2.4 2.3-1.3 0-2.3-1-2.3-2.3z"/><path fill-rule="evenodd" class="c" d="m136.4 83.9c0-1.4 1-2.4 2.3-2.4 1.3 0 2.4 1 2.4 2.4 0 1.3-1.1 2.3-2.4 2.3-1.3 0-2.3-1-2.3-2.3z"/><path class="b" d="m143.3 83.9c0-1.4 1.1-2.4 2.4-2.4 1.3 0 2.4 1 2.4 2.4 0 1.3-1.1 2.3-2.4 2.3-1.3 0-2.4-1-2.4-2.3z"/><path fill-rule="evenodd" class="c" d="m143.3 83.9c0-1.4 1.1-2.4 2.4-2.4 1.3 0 2.4 1 2.4 2.4 0 1.3-1.1 2.3-2.4 2.3-1.3 0-2.4-1-2.4-2.3z"/><path class="b" d="m150.3 83.9c0-1.4 1.1-2.4 2.4-2.4 1.3 0 2.3 1 2.3 2.4 0 1.3-1 2.3-2.3 2.3-1.3 0-2.4-1-2.4-2.3z"/><path fill-rule="evenodd" class="c" d="m150.3 83.9c0-1.4 1.1-2.4 2.4-2.4 1.3 0 2.3 1 2.3 2.4 0 1.3-1 2.3-2.3 2.3-1.3 0-2.4-1-2.4-2.3z"/><path class="b" d="m106.6 65.8c0-1.3 1.1-2.3 2.4-2.3 1.3 0 2.4 1 2.4 2.3 0 1.4-1.1 2.4-2.4 2.4-1.3 0-2.4-1-2.4-2.4z"/><path fill-rule="evenodd" class="c" d="m106.6 65.8c0-1.3 1.1-2.3 2.4-2.3 1.3 0 2.4 1 2.4 2.3 0 1.4-1.1 2.4-2.4 2.4-1.3 0-2.4-1-2.4-2.4z"/><path class="b" d="m113.6 65.8c0-1.3 1.1-2.3 2.4-2.3 1.3 0 2.4 1 2.4 2.3 0 1.4-1.1 2.4-2.4 2.4-1.3 0-2.4-1-2.4-2.4z"/><path fill-rule="evenodd" class="c" d="m113.6 65.8c0-1.3 1.1-2.3 2.4-2.3 1.3 0 2.4 1 2.4 2.3 0 1.4-1.1 2.4-2.4 2.4-1.3 0-2.4-1-2.4-2.4z"/><path class="b" d="m127.6 65.8c0-1.3 1-2.3 2.3-2.3 1.4 0 2.4 1 2.4 2.3 0 1.4-1 2.4-2.4 2.4-1.3 0-2.3-1-2.3-2.4z"/><path fill-rule="evenodd" class="c" d="m127.6 65.8c0-1.3 1-2.3 2.3-2.3 1.4 0 2.4 1 2.4 2.3 0 1.4-1 2.4-2.4 2.4-1.3 0-2.3-1-2.3-2.4z"/><path class="b" d="m134.6 65.8c0-1.3 1-2.3 2.3-2.3 1.3 0 2.4 1 2.4 2.3 0 1.4-1.1 2.4-2.4 2.4-1.3 0-2.3-1-2.3-2.4z"/><path fill-rule="evenodd" class="c" d="m134.6 65.8c0-1.3 1-2.3 2.3-2.3 1.3 0 2.4 1 2.4 2.3 0 1.4-1.1 2.4-2.4 2.4-1.3 0-2.3-1-2.3-2.4z"/><path class="b" d="m141.5 65.8c0-1.3 1.1-2.3 2.4-2.3 1.3 0 2.4 1 2.4 2.3 0 1.4-1.1 2.4-2.4 2.4-1.3 0-2.4-1-2.4-2.4z"/><path fill-rule="evenodd" class="c" d="m141.5 65.8c0-1.3 1.1-2.3 2.4-2.3 1.3 0 2.4 1 2.4 2.3 0 1.4-1.1 2.4-2.4 2.4-1.3 0-2.4-1-2.4-2.4z"/><path class="b" d="m108.2 59.8c0-1.3 1-2.4 2.3-2.4 1.3 0 2.4 1.1 2.4 2.4 0 1.3-1.1 2.4-2.4 2.4-1.3 0-2.3-1.1-2.3-2.4z"/><path fill-rule="evenodd" class="c" d="m108.2 59.8c0-1.3 1-2.4 2.3-2.4 1.3 0 2.4 1.1 2.4 2.4 0 1.3-1.1 2.4-2.4 2.4-1.3 0-2.3-1.1-2.3-2.4z"/><path class="b" d="m115.1 59.8c0-1.3 1.1-2.4 2.4-2.4 1.3 0 2.4 1.1 2.4 2.4 0 1.3-1.1 2.4-2.4 2.4-1.3 0-2.4-1.1-2.4-2.4z"/><path fill-rule="evenodd" class="c" d="m115.1 59.8c0-1.3 1.1-2.4 2.4-2.4 1.3 0 2.4 1.1 2.4 2.4 0 1.3-1.1 2.4-2.4 2.4-1.3 0-2.4-1.1-2.4-2.4z"/><path class="b" d="m129.1 59.8c0-1.3 1-2.4 2.4-2.4 1.3 0 2.3 1.1 2.3 2.4 0 1.3-1 2.4-2.3 2.4-1.4 0-2.4-1.1-2.4-2.4z"/><path fill-rule="evenodd" class="c" d="m129.1 59.8c0-1.3 1-2.4 2.4-2.4 1.3 0 2.3 1.1 2.3 2.4 0 1.3-1 2.4-2.3 2.4-1.4 0-2.4-1.1-2.4-2.4z"/><path class="b" d="m136.1 59.8c0-1.3 1-2.4 2.3-2.4 1.3 0 2.4 1.1 2.4 2.4 0 1.3-1.1 2.4-2.4 2.4-1.3 0-2.3-1.1-2.3-2.4z"/><path fill-rule="evenodd" class="c" d="m136.1 59.8c0-1.3 1-2.4 2.3-2.4 1.3 0 2.4 1.1 2.4 2.4 0 1.3-1.1 2.4-2.4 2.4-1.3 0-2.3-1.1-2.3-2.4z"/><path class="b" d="m143 59.8c0-1.3 1.1-2.4 2.4-2.4 1.3 0 2.4 1.1 2.4 2.4 0 1.3-1.1 2.4-2.4 2.4-1.3 0-2.4-1.1-2.4-2.4z"/><path fill-rule="evenodd" class="c" d="m143 59.8c0-1.3 1.1-2.4 2.4-2.4 1.3 0 2.4 1.1 2.4 2.4 0 1.3-1.1 2.4-2.4 2.4-1.3 0-2.4-1.1-2.4-2.4z"/><path class="b" d="m100.6 71.9c0-1.3 1-2.4 2.3-2.4 1.3 0 2.4 1.1 2.4 2.4 0 1.3-1.1 2.3-2.4 2.3-1.3 0-2.3-1-2.3-2.3z"/><path fill-rule="evenodd" class="c" d="m100.6 71.9c0-1.3 1-2.4 2.3-2.4 1.3 0 2.4 1.1 2.4 2.4 0 1.3-1.1 2.3-2.4 2.3-1.3 0-2.3-1-2.3-2.3z"/><path class="b" d="m107.5 71.9c0-1.3 1.1-2.4 2.4-2.4 1.3 0 2.4 1.1 2.4 2.4 0 1.3-1.1 2.3-2.4 2.3-1.3 0-2.4-1-2.4-2.3z"/><path fill-rule="evenodd" class="c" d="m107.5 71.9c0-1.3 1.1-2.4 2.4-2.4 1.3 0 2.4 1.1 2.4 2.4 0 1.3-1.1 2.3-2.4 2.3-1.3 0-2.4-1-2.4-2.3z"/><path class="b" d="m114.5 71.9c0-1.3 1.1-2.4 2.4-2.4 1.3 0 2.4 1.1 2.4 2.4 0 1.3-1.1 2.3-2.4 2.3-1.3 0-2.4-1-2.4-2.3z"/><path fill-rule="evenodd" class="c" d="m114.5 71.9c0-1.3 1.1-2.4 2.4-2.4 1.3 0 2.4 1.1 2.4 2.4 0 1.3-1.1 2.3-2.4 2.3-1.3 0-2.4-1-2.4-2.3z"/><path class="a" d="m125.5 53.8c0-1.3 1-2.4 2.4-2.4 1.3 0 2.3 1.1 2.3 2.4 0 1.3-1 2.4-2.3 2.4-1.4 0-2.4-1.1-2.4-2.4z"/><path class="a" d="m125.1 101.9c0-1.3 1-2.4 2.3-2.4 1.3 0 2.4 1.1 2.4 2.4 0 1.3-1.1 2.4-2.4 2.4-1.3 0-2.3-1.1-2.3-2.4z"/><path class="a" d="m130.5 89.9c0-1.3 1-2.4 2.3-2.4 1.3 0 2.4 1.1 2.4 2.4 0 1.3-1.1 2.4-2.4 2.4-1.3 0-2.3-1.1-2.3-2.4z"/><path class="a" d="m128.8 95.9c0-1.3 1.1-2.4 2.4-2.4 1.3 0 2.3 1.1 2.3 2.4 0 1.3-1 2.4-2.3 2.4-1.3 0-2.4-1.1-2.4-2.4z"/><path class="a" d="m125.8 77.9c0-1.3 1-2.4 2.3-2.4 1.3 0 2.4 1.1 2.4 2.4 0 1.3-1.1 2.3-2.4 2.3-1.3 0-2.3-1-2.3-2.3z"/><path class="a" d="m129.4 83.9c0-1.4 1-2.4 2.3-2.4 1.4 0 2.4 1 2.4 2.4 0 1.3-1 2.3-2.4 2.3-1.3 0-2.3-1-2.3-2.3z"/><path class="a" d="m120.6 65.8c0-1.3 1.1-2.3 2.4-2.3 1.3 0 2.3 1 2.3 2.3 0 1.4-1 2.4-2.3 2.4-1.3 0-2.4-1-2.4-2.4z"/><path class="a" d="m122.1 59.8c0-1.3 1.1-2.4 2.4-2.4 1.3 0 2.3 1.1 2.3 2.4 0 1.3-1 2.4-2.3 2.4-1.3 0-2.4-1.1-2.4-2.4z"/><path class="a" d="m121.5 71.9c0-1.3 1.1-2.4 2.4-2.4 1.3 0 2.3 1.1 2.3 2.4 0 1.3-1 2.3-2.3 2.3-1.3 0-2.4-1-2.4-2.3z"/><path class="b" d="m128.5 71.9c0-1.3 1-2.4 2.3-2.4 1.3 0 2.4 1.1 2.4 2.4 0 1.3-1.1 2.3-2.4 2.3-1.3 0-2.3-1-2.3-2.3z"/><path fill-rule="evenodd" class="c" d="m128.5 71.9c0-1.3 1-2.4 2.3-2.4 1.3 0 2.4 1.1 2.4 2.4 0 1.3-1.1 2.3-2.4 2.3-1.3 0-2.3-1-2.3-2.3z"/><path class="b" d="m135.4 71.9c0-1.3 1.1-2.4 2.4-2.4 1.3 0 2.4 1.1 2.4 2.4 0 1.3-1.1 2.3-2.4 2.3-1.3 0-2.4-1-2.4-2.3z"/><path fill-rule="evenodd" class="c" d="m135.4 71.9c0-1.3 1.1-2.4 2.4-2.4 1.3 0 2.4 1.1 2.4 2.4 0 1.3-1.1 2.3-2.4 2.3-1.3 0-2.4-1-2.4-2.3z"/><path class="b" d="m142.4 71.9c0-1.3 1.1-2.4 2.4-2.4 1.3 0 2.4 1.1 2.4 2.4 0 1.3-1.1 2.3-2.4 2.3-1.3 0-2.4-1-2.4-2.3z"/><path fill-rule="evenodd" class="c" d="m142.4 71.9c0-1.3 1.1-2.4 2.4-2.4 1.3 0 2.4 1.1 2.4 2.4 0 1.3-1.1 2.3-2.4 2.3-1.3 0-2.4-1-2.4-2.3z"/><path class="b" d="m149.4 71.9c0-1.3 1.1-2.4 2.4-2.4 1.3 0 2.3 1.1 2.3 2.4 0 1.3-1 2.3-2.3 2.3-1.3 0-2.4-1-2.4-2.3z"/><path fill-rule="evenodd" class="c" d="m149.4 71.9c0-1.3 1.1-2.4 2.4-2.4 1.3 0 2.3 1.1 2.3 2.4 0 1.3-1 2.3-2.3 2.3-1.3 0-2.4-1-2.4-2.3z"/><path fill-rule="evenodd" class="a" d="m173.5 111.4c0-1.5 0.6-2.8 1.5-3.8 1-1 2.4-1.6 3.9-1.6 1.5 0 2.8 0.6 3.8 1.6 0.9 1 1.6 2.3 1.6 3.8 0 1.5-0.7 2.9-1.6 3.9-1 1-2.3 1.6-3.8 1.6-1.5 0-2.9-0.6-3.9-1.6-0.9-1-1.5-2.4-1.5-3.9zm0.9 0c0 1.3 0.5 2.4 1.3 3.2 0.8 0.8 1.9 1.3 3.2 1.3 1.2 0 2.3-0.5 3.1-1.3 0.8-0.8 1.3-1.9 1.3-3.2 0-1.2-0.5-2.3-1.3-3.1-0.8-0.8-1.9-1.4-3.1-1.4-1.3 0-2.4 0.6-3.2 1.4-0.8 0.8-1.3 1.9-1.3 3.1z"/><path fill-rule="evenodd" class="a" d="m176.9 113.8v-5h2.1q0.8 0 1.1 0.2 0.4 0.1 0.6 0.4 0.2 0.4 0.2 0.8 0 0.6-0.3 1-0.3 0.3-1 0.4 0.3 0.2 0.5 0.4 0.3 0.3 0.6 0.9l0.6 0.9h-1.2l-0.7-1.1q-0.4-0.5-0.5-0.7-0.2-0.1-0.3-0.2-0.2-0.1-0.5-0.1h-0.2v2.1zm1-2.8h0.7q0.7-0.1 0.9-0.1 0.2-0.1 0.3-0.2 0.1-0.2 0.1-0.4 0-0.3-0.1-0.4-0.2-0.2-0.4-0.2-0.1 0-0.8 0h-0.7z"/></svg>