<svg width="193" height="104" xmlns="http://www.w3.org/2000/svg">

 <g>
  <title>Layer 1</title>
  <g>
   <path fill="#231f20" d="m29.1,73.69999c-0.3,-3.6 -2.2,-5.3 -5.8,-5.3c-2.7,0 -5.5,1.5 -5.5,4.5c0,3.8 3.4,4.2 6.4,4.8c5.3,1.4 13.1,2.9 13.1,9.9c0,8 -6.5,11.2 -13.4,11.6l-3.2,0c-6.8,-0.4 -11.5,-3.4 -11.7,-10.8l0,-1.1l7.6,0c-0.3,3.9 1.9,6.5 5.8,6.5c3,0 7,-0.9 7,-4.6c0,-4.1 -5,-4.4 -8,-5.2c-4.9,-1.2 -11.5,-3.4 -11.5,-9.5c0,-8 7.3,-11.5 14.4,-11.5c6.8,0 12.1,3.7 12.1,10.7l-7.3,0z" class="a"/>
   <path fill="#231f20" d="m51.2,99.19999c-7.1,-0.6 -11.3,-5.6 -11.3,-12.8c0,-7.6 4.7,-12.8 12.6,-12.8c7.9,0 12.6,5.2 12.6,12.8c0,7.2 -4.2,12.2 -11.3,12.8l-2.6,0zm1.4,-4.8c4.4,0 5.1,-4.1 5.1,-8c0,-3.8 -0.7,-8 -5.1,-8c-4.4,0 -5.2,4.2 -5.2,8c0,3.9 0.8,8 5.2,8z" class="a" fill-rule="evenodd"/>
   <path fill="#231f20" d="m81.4,67.79999c-5.1,-0.6 -5.2,1.7 -5,6.5l4.4,0l0,4.8l-4.4,0l0,19.5l-7.2,0l0,-19.5l-3.6,0l0,-4.8l3.6,0c-0.2,-6.9 0.4,-11.3 8.3,-11.3c1.3,0 2.6,0.1 3.9,0.3l0,4.5z" class="a"/>
   <path fill="#231f20" d="m87.5,74.29999l0,-4.8l7.2,-2.6l0,7.4l5.5,0l0,4.8l-5.5,0l0,11.3c0,3.1 0.5,4 3,4c0.8,0 1.5,-0.1 2.3,-0.1l0,4.2c-0.6,0.3 -3,0.6 -4.6,0.7l-2.3,0c-4.6,-0.4 -5.6,-3.3 -5.6,-8.2l0,-11.9l-4.9,0l0,-4.8l4.9,0z" class="a"/>
   <path fill="#231f20" d="m107.2,74.29999l0,-4.8l7.2,-2.6l0,7.4l5.5,0l0,4.8l-5.5,0l0,11.3c0,3.1 0.5,4 3,4c0.8,0 1.6,-0.1 2.3,-0.1l0,4.2c-0.6,0.3 -3,0.6 -4.5,0.7l-2.4,0c-4.6,-0.4 -5.6,-3.3 -5.6,-8.2l0,-11.9l-4.9,0l0,-4.8l4.9,0z" class="a"/>
   <path fill="#231f20" d="m131.4,99.19999c-7.2,-0.5 -10.1,-5.1 -10.1,-12.7c0,-7.3 4.2,-12.9 11.6,-12.9c4.6,0 8.3,1.5 10.3,5.8c0.7,1.3 1.1,2.8 1.3,4.3c0.1,1.5 0.1,3.1 0.1,4.7l-15.9,0c0,3.1 0.5,6 4.2,6c2.5,0 3.8,-0.9 4.5,-3.1l6.5,0c-0.6,5.4 -4.5,7.6 -9.5,7.9l-3,0zm5.8,-15.7c0,-2.6 -0.7,-5.1 -4.3,-5.1c-3.3,0 -4.1,2.5 -4.2,5.1l8.5,0z" class="a" fill-rule="evenodd"/>
   <path fill="#231f20" d="m154.9,84.09999l0.1,0.1l7.1,-10.2l8,0l-8.3,10.7l8.9,13.9l-8.5,0l-7.2,-13.3l-0.1,0.1l0,13.2l-7.3,0l0,-34.9l7.3,0l0,20.4z" class="a"/>
   <path fill="#fff" d="m119,11.19999c0,-1.3 1.1,-2.4 2.4,-2.4c1.3,0 2.3,1.1 2.3,2.4c0,1.3 -1,2.4 -2.3,2.4c-1.3,0 -2.4,-1.1 -2.4,-2.4z" class="b"/>
   <path stroke-width="0.7" stroke-miterlimit="2.6131" stroke="#231f20" fill="none" d="m119,11.19999c0,-1.3 1.1,-2.4 2.4,-2.4c1.3,0 2.3,1.1 2.3,2.4c0,1.3 -1,2.4 -2.3,2.4c-1.3,0 -2.4,-1.1 -2.4,-2.4z" class="c" fill-rule="evenodd"/>
   <path fill="#fff" d="m118.6,59.29999c0,-1.3 1,-2.4 2.4,-2.4c1.3,0 2.3,1.1 2.3,2.4c0,1.3 -1,2.4 -2.3,2.4c-1.4,0 -2.4,-1.1 -2.4,-2.4z" class="b"/>
   <path stroke-width="0.7" stroke-miterlimit="2.6131" stroke="#231f20" fill="none" d="m118.6,59.29999c0,-1.3 1,-2.4 2.4,-2.4c1.3,0 2.3,1.1 2.3,2.4c0,1.3 -1,2.4 -2.3,2.4c-1.4,0 -2.4,-1.1 -2.4,-2.4z" class="c" fill-rule="evenodd"/>
   <path fill="#fff" d="m132.5,59.29999c0,-1.3 1.1,-2.4 2.4,-2.4c1.3,0 2.4,1.1 2.4,2.4c0,1.3 -1.1,2.4 -2.4,2.4c-1.3,0 -2.4,-1.1 -2.4,-2.4z" class="b"/>
   <path stroke-width="0.7" stroke-miterlimit="2.6131" stroke="#231f20" fill="none" d="m132.5,59.29999c0,-1.3 1.1,-2.4 2.4,-2.4c1.3,0 2.4,1.1 2.4,2.4c0,1.3 -1.1,2.4 -2.4,2.4c-1.3,0 -2.4,-1.1 -2.4,-2.4z" class="c" fill-rule="evenodd"/>
   <path fill="#fff" d="m133,11.19999c0,-1.3 1,-2.4 2.3,-2.4c1.3,0 2.4,1.1 2.4,2.4c0,1.3 -1.1,2.4 -2.4,2.4c-1.3,0 -2.3,-1.1 -2.3,-2.4z" class="b"/>
   <path stroke-width="0.7" stroke-miterlimit="2.6131" stroke="#231f20" fill="none" d="m133,11.19999c0,-1.3 1,-2.4 2.3,-2.4c1.3,0 2.4,1.1 2.4,2.4c0,1.3 -1.1,2.4 -2.4,2.4c-1.3,0 -2.3,-1.1 -2.3,-2.4z" class="c" fill-rule="evenodd"/>
   <path fill="#fff" d="m103.1,47.29999c0,-1.3 1,-2.4 2.3,-2.4c1.3,0 2.4,1.1 2.4,2.4c0,1.3 -1.1,2.4 -2.4,2.4c-1.3,0 -2.3,-1.1 -2.3,-2.4z" class="b"/>
   <path stroke-width="0.7" stroke-miterlimit="2.6131" stroke="#231f20" fill="none" d="m103.1,47.29999c0,-1.3 1,-2.4 2.3,-2.4c1.3,0 2.4,1.1 2.4,2.4c0,1.3 -1.1,2.4 -2.4,2.4c-1.3,0 -2.3,-1.1 -2.3,-2.4z" class="c" fill-rule="evenodd"/>
   <path fill="#fff" d="m110,47.29999c0,-1.3 1.1,-2.4 2.4,-2.4c1.3,0 2.4,1.1 2.4,2.4c0,1.3 -1.1,2.4 -2.4,2.4c-1.3,0 -2.4,-1.1 -2.4,-2.4z" class="b"/>
   <path stroke-width="0.7" stroke-miterlimit="2.6131" stroke="#231f20" fill="none" d="m110,47.29999c0,-1.3 1.1,-2.4 2.4,-2.4c1.3,0 2.4,1.1 2.4,2.4c0,1.3 -1.1,2.4 -2.4,2.4c-1.3,0 -2.4,-1.1 -2.4,-2.4z" class="c" fill-rule="evenodd"/>
   <path fill="#fff" d="m117,47.29999c0,-1.3 1.1,-2.4 2.4,-2.4c1.3,0 2.3,1.1 2.3,2.4c0,1.3 -1,2.4 -2.3,2.4c-1.3,0 -2.4,-1.1 -2.4,-2.4z" class="b"/>
   <path stroke-width="0.7" stroke-miterlimit="2.6131" stroke="#231f20" fill="none" d="m117,47.29999c0,-1.3 1.1,-2.4 2.4,-2.4c1.3,0 2.3,1.1 2.3,2.4c0,1.3 -1,2.4 -2.3,2.4c-1.3,0 -2.4,-1.1 -2.4,-2.4z" class="c" fill-rule="evenodd"/>
   <path fill="#fff" d="m124,47.29999c0,-1.3 1,-2.4 2.4,-2.4c1.3,0 2.3,1.1 2.3,2.4c0,1.3 -1,2.4 -2.3,2.4c-1.4,0 -2.4,-1.1 -2.4,-2.4z" class="b"/>
   <path stroke-width="0.7" stroke-miterlimit="2.6131" stroke="#231f20" fill="none" d="m124,47.29999c0,-1.3 1,-2.4 2.4,-2.4c1.3,0 2.3,1.1 2.3,2.4c0,1.3 -1,2.4 -2.3,2.4c-1.4,0 -2.4,-1.1 -2.4,-2.4z" class="c" fill-rule="evenodd"/>
   <path fill="#fff" d="m137.9,47.29999c0,-1.3 1.1,-2.4 2.4,-2.4c1.3,0 2.4,1.1 2.4,2.4c0,1.3 -1.1,2.4 -2.4,2.4c-1.3,0 -2.4,-1.1 -2.4,-2.4z" class="b"/>
   <path stroke-width="0.7" stroke-miterlimit="2.6131" stroke="#231f20" fill="none" d="m137.9,47.29999c0,-1.3 1.1,-2.4 2.4,-2.4c1.3,0 2.4,1.1 2.4,2.4c0,1.3 -1.1,2.4 -2.4,2.4c-1.3,0 -2.4,-1.1 -2.4,-2.4z" class="c" fill-rule="evenodd"/>
   <path fill="#fff" d="m144.9,47.29999c0,-1.3 1.1,-2.4 2.4,-2.4c1.3,0 2.3,1.1 2.3,2.4c0,1.3 -1,2.4 -2.3,2.4c-1.3,0 -2.4,-1.1 -2.4,-2.4z" class="b"/>
   <path stroke-width="0.7" stroke-miterlimit="2.6131" stroke="#231f20" fill="none" d="m144.9,47.29999c0,-1.3 1.1,-2.4 2.4,-2.4c1.3,0 2.3,1.1 2.3,2.4c0,1.3 -1,2.4 -2.3,2.4c-1.3,0 -2.4,-1.1 -2.4,-2.4z" class="c" fill-rule="evenodd"/>
   <path fill="#fff" d="m108.4,53.29999c0,-1.3 1,-2.4 2.4,-2.4c1.3,0 2.3,1.1 2.3,2.4c0,1.3 -1,2.4 -2.3,2.4c-1.4,0 -2.4,-1.1 -2.4,-2.4z" class="b"/>
   <path stroke-width="0.7" stroke-miterlimit="2.6131" stroke="#231f20" fill="none" d="m108.4,53.29999c0,-1.3 1,-2.4 2.4,-2.4c1.3,0 2.3,1.1 2.3,2.4c0,1.3 -1,2.4 -2.3,2.4c-1.4,0 -2.4,-1.1 -2.4,-2.4z" class="c" fill-rule="evenodd"/>
   <path fill="#fff" d="m115.4,53.29999c0,-1.3 1,-2.4 2.3,-2.4c1.3,0 2.4,1.1 2.4,2.4c0,1.3 -1.1,2.4 -2.4,2.4c-1.3,0 -2.3,-1.1 -2.3,-2.4z" class="b"/>
   <path stroke-width="0.7" stroke-miterlimit="2.6131" stroke="#231f20" fill="none" d="m115.4,53.29999c0,-1.3 1,-2.4 2.3,-2.4c1.3,0 2.4,1.1 2.4,2.4c0,1.3 -1.1,2.4 -2.4,2.4c-1.3,0 -2.3,-1.1 -2.3,-2.4z" class="c" fill-rule="evenodd"/>
   <path fill="#fff" d="m122.3,53.29999c0,-1.3 1.1,-2.4 2.4,-2.4c1.3,0 2.4,1.1 2.4,2.4c0,1.3 -1.1,2.4 -2.4,2.4c-1.3,0 -2.4,-1.1 -2.4,-2.4z" class="b"/>
   <path stroke-width="0.7" stroke-miterlimit="2.6131" stroke="#231f20" fill="none" d="m122.3,53.29999c0,-1.3 1.1,-2.4 2.4,-2.4c1.3,0 2.4,1.1 2.4,2.4c0,1.3 -1.1,2.4 -2.4,2.4c-1.3,0 -2.4,-1.1 -2.4,-2.4z" class="c" fill-rule="evenodd"/>
   <path fill="#fff" d="m136.3,53.29999c0,-1.3 1,-2.4 2.4,-2.4c1.3,0 2.3,1.1 2.3,2.4c0,1.3 -1,2.4 -2.3,2.4c-1.4,0 -2.4,-1.1 -2.4,-2.4z" class="b"/>
   <path stroke-width="0.7" stroke-miterlimit="2.6131" stroke="#231f20" fill="none" d="m136.3,53.29999c0,-1.3 1,-2.4 2.4,-2.4c1.3,0 2.3,1.1 2.3,2.4c0,1.3 -1,2.4 -2.3,2.4c-1.4,0 -2.4,-1.1 -2.4,-2.4z" class="c" fill-rule="evenodd"/>
   <path fill="#fff" d="m143.3,53.29999c0,-1.3 1,-2.4 2.3,-2.4c1.3,0 2.4,1.1 2.4,2.4c0,1.3 -1.1,2.4 -2.4,2.4c-1.3,0 -2.3,-1.1 -2.3,-2.4z" class="b"/>
   <path stroke-width="0.7" stroke-miterlimit="2.6131" stroke="#231f20" fill="none" d="m143.3,53.29999c0,-1.3 1,-2.4 2.3,-2.4c1.3,0 2.4,1.1 2.4,2.4c0,1.3 -1.1,2.4 -2.4,2.4c-1.3,0 -2.3,-1.1 -2.3,-2.4z" class="c" fill-rule="evenodd"/>
   <path fill="#fff" d="m105.3,35.29999c0,-1.3 1.1,-2.4 2.4,-2.4c1.3,0 2.4,1.1 2.4,2.4c0,1.3 -1.1,2.3 -2.4,2.3c-1.3,0 -2.4,-1 -2.4,-2.3z" class="b"/>
   <path stroke-width="0.7" stroke-miterlimit="2.6131" stroke="#231f20" fill="none" d="m105.3,35.29999c0,-1.3 1.1,-2.4 2.4,-2.4c1.3,0 2.4,1.1 2.4,2.4c0,1.3 -1.1,2.3 -2.4,2.3c-1.3,0 -2.4,-1 -2.4,-2.3z" class="c" fill-rule="evenodd"/>
   <path fill="#fff" d="m112.3,35.29999c0,-1.3 1.1,-2.4 2.4,-2.4c1.3,0 2.4,1.1 2.4,2.4c0,1.3 -1.1,2.3 -2.4,2.3c-1.3,0 -2.4,-1 -2.4,-2.3z" class="b"/>
   <path stroke-width="0.7" stroke-miterlimit="2.6131" stroke="#231f20" fill="none" d="m112.3,35.29999c0,-1.3 1.1,-2.4 2.4,-2.4c1.3,0 2.4,1.1 2.4,2.4c0,1.3 -1.1,2.3 -2.4,2.3c-1.3,0 -2.4,-1 -2.4,-2.3z" class="c" fill-rule="evenodd"/>
   <path fill="#fff" d="m119.3,35.29999c0,-1.3 1.1,-2.4 2.4,-2.4c1.3,0 2.3,1.1 2.3,2.4c0,1.3 -1,2.3 -2.3,2.3c-1.3,0 -2.4,-1 -2.4,-2.3z" class="b"/>
   <path stroke-width="0.7" stroke-miterlimit="2.6131" stroke="#231f20" fill="none" d="m119.3,35.29999c0,-1.3 1.1,-2.4 2.4,-2.4c1.3,0 2.3,1.1 2.3,2.4c0,1.3 -1,2.3 -2.3,2.3c-1.3,0 -2.4,-1 -2.4,-2.3z" class="c" fill-rule="evenodd"/>
   <path fill="#fff" d="m133.2,35.29999c0,-1.3 1.1,-2.4 2.4,-2.4c1.3,0 2.4,1.1 2.4,2.4c0,1.3 -1.1,2.3 -2.4,2.3c-1.3,0 -2.4,-1 -2.4,-2.3z" class="b"/>
   <path stroke-width="0.7" stroke-miterlimit="2.6131" stroke="#231f20" fill="none" d="m133.2,35.29999c0,-1.3 1.1,-2.4 2.4,-2.4c1.3,0 2.4,1.1 2.4,2.4c0,1.3 -1.1,2.3 -2.4,2.3c-1.3,0 -2.4,-1 -2.4,-2.3z" class="c" fill-rule="evenodd"/>
   <path fill="#fff" d="m140.2,35.29999c0,-1.3 1.1,-2.4 2.4,-2.4c1.3,0 2.4,1.1 2.4,2.4c0,1.3 -1.1,2.3 -2.4,2.3c-1.3,0 -2.4,-1 -2.4,-2.3z" class="b"/>
   <path stroke-width="0.7" stroke-miterlimit="2.6131" stroke="#231f20" fill="none" d="m140.2,35.29999c0,-1.3 1.1,-2.4 2.4,-2.4c1.3,0 2.4,1.1 2.4,2.4c0,1.3 -1.1,2.3 -2.4,2.3c-1.3,0 -2.4,-1 -2.4,-2.3z" class="c" fill-rule="evenodd"/>
   <path fill="#fff" d="m147.2,35.29999c0,-1.3 1.1,-2.4 2.4,-2.4c1.3,0 2.3,1.1 2.3,2.4c0,1.3 -1,2.3 -2.3,2.3c-1.3,0 -2.4,-1 -2.4,-2.3z" class="b"/>
   <path stroke-width="0.7" stroke-miterlimit="2.6131" stroke="#231f20" fill="none" d="m147.2,35.29999c0,-1.3 1,-2.4 2.4,-2.4c1.3,0 2.3,1.1 2.3,2.4c0,1.3 -1,2.3 -2.3,2.3c-1.4,0 -2.4,-1 -2.4,-2.3z" class="c" fill-rule="evenodd"/>
   <path fill="#fff" d="m102,41.29999c0,-1.4 1,-2.4 2.3,-2.4c1.4,0 2.4,1 2.4,2.4c0,1.3 -1,2.3 -2.4,2.3c-1.3,0 -2.3,-1 -2.3,-2.3z" class="b"/>
   <path stroke-width="0.7" stroke-miterlimit="2.6131" stroke="#231f20" fill="none" d="m102,41.29999c0,-1.4 1,-2.4 2.3,-2.4c1.4,0 2.4,1 2.4,2.4c0,1.3 -1,2.3 -2.4,2.3c-1.3,0 -2.3,-1 -2.3,-2.3z" class="c" fill-rule="evenodd"/>
   <path fill="#fff" d="m109,41.29999c0,-1.4 1,-2.4 2.3,-2.4c1.3,0 2.4,1 2.4,2.4c0,1.3 -1.1,2.3 -2.4,2.3c-1.3,0 -2.3,-1 -2.3,-2.3z" class="b"/>
   <path stroke-width="0.7" stroke-miterlimit="2.6131" stroke="#231f20" fill="none" d="m109,41.29999c0,-1.4 1,-2.4 2.3,-2.4c1.3,0 2.4,1 2.4,2.4c0,1.3 -1.1,2.3 -2.4,2.3c-1.3,0 -2.3,-1 -2.3,-2.3z" class="c" fill-rule="evenodd"/>
   <path fill="#fff" d="m115.9,41.29999c0,-1.4 1.1,-2.4 2.4,-2.4c1.3,0 2.4,1 2.4,2.4c0,1.3 -1.1,2.3 -2.4,2.3c-1.3,0 -2.4,-1 -2.4,-2.3z" class="b"/>
   <path stroke-width="0.7" stroke-miterlimit="2.6131" stroke="#231f20" fill="none" d="m115.9,41.29999c0,-1.4 1.1,-2.4 2.4,-2.4c1.3,0 2.4,1 2.4,2.4c0,1.3 -1.1,2.3 -2.4,2.3c-1.3,0 -2.4,-1 -2.4,-2.3z" class="c" fill-rule="evenodd"/>
   <path fill="#fff" d="m122.9,41.29999c0,-1.4 1.1,-2.4 2.4,-2.4c1.3,0 2.3,1 2.3,2.4c0,1.3 -1,2.3 -2.3,2.3c-1.3,0 -2.4,-1 -2.4,-2.3z" class="b"/>
   <path stroke-width="0.7" stroke-miterlimit="2.6131" stroke="#231f20" fill="none" d="m122.9,41.29999c0,-1.4 1.1,-2.4 2.4,-2.4c1.3,0 2.3,1 2.3,2.4c0,1.3 -1,2.3 -2.3,2.3c-1.3,0 -2.4,-1 -2.4,-2.3z" class="c" fill-rule="evenodd"/>
   <path fill="#fff" d="m136.9,41.29999c0,-1.4 1,-2.4 2.3,-2.4c1.3,0 2.4,1 2.4,2.4c0,1.3 -1.1,2.3 -2.4,2.3c-1.3,0 -2.3,-1 -2.3,-2.3z" class="b"/>
   <path stroke-width="0.7" stroke-miterlimit="2.6131" stroke="#231f20" fill="none" d="m136.9,41.29999c0,-1.4 1,-2.4 2.3,-2.4c1.3,0 2.4,1 2.4,2.4c0,1.3 -1.1,2.3 -2.4,2.3c-1.3,0 -2.3,-1 -2.3,-2.3z" class="c" fill-rule="evenodd"/>
   <path fill="#fff" d="m143.8,41.29999c0,-1.4 1.1,-2.4 2.4,-2.4c1.3,0 2.4,1 2.4,2.4c0,1.3 -1.1,2.3 -2.4,2.3c-1.3,0 -2.4,-1 -2.4,-2.3z" class="b"/>
   <path stroke-width="0.7" stroke-miterlimit="2.6131" stroke="#231f20" fill="none" d="m143.8,41.29999c0,-1.4 1.1,-2.4 2.4,-2.4c1.3,0 2.4,1 2.4,2.4c0,1.3 -1.1,2.3 -2.4,2.3c-1.3,0 -2.4,-1 -2.4,-2.3z" class="c" fill-rule="evenodd"/>
   <path fill="#fff" d="m150.8,41.29999c0,-1.4 1.1,-2.4 2.4,-2.4c1.3,0 2.3,1 2.3,2.4c0,1.3 -1,2.3 -2.3,2.3c-1.3,0 -2.4,-1 -2.4,-2.3z" class="b"/>
   <path stroke-width="0.7" stroke-miterlimit="2.6131" stroke="#231f20" fill="none" d="m150.8,41.29999c0,-1.4 1.1,-2.4 2.4,-2.4c1.3,0 2.3,1 2.3,2.4c0,1.3 -1,2.3 -2.3,2.3c-1.3,0 -2.4,-1 -2.4,-2.3z" class="c" fill-rule="evenodd"/>
   <path fill="#fff" d="m107.1,23.19999c0,-1.3 1.1,-2.3 2.4,-2.3c1.3,0 2.4,1 2.4,2.3c0,1.4 -1.1,2.4 -2.4,2.4c-1.3,0 -2.4,-1 -2.4,-2.4z" class="b"/>
   <path stroke-width="0.7" stroke-miterlimit="2.6131" stroke="#231f20" fill="none" d="m107.1,23.19999c0,-1.3 1.1,-2.3 2.4,-2.3c1.3,0 2.4,1 2.4,2.3c0,1.4 -1.1,2.4 -2.4,2.4c-1.3,0 -2.4,-1 -2.4,-2.4z" class="c" fill-rule="evenodd"/>
   <path fill="#fff" d="m114.1,23.19999c0,-1.3 1.1,-2.3 2.4,-2.3c1.3,0 2.4,1 2.4,2.3c0,1.4 -1.1,2.4 -2.4,2.4c-1.3,0 -2.4,-1 -2.4,-2.4z" class="b"/>
   <path stroke-width="0.7" stroke-miterlimit="2.6131" stroke="#231f20" fill="none" d="m114.1,23.19999c0,-1.3 1.1,-2.3 2.4,-2.3c1.3,0 2.4,1 2.4,2.3c0,1.4 -1.1,2.4 -2.4,2.4c-1.3,0 -2.4,-1 -2.4,-2.4z" class="c" fill-rule="evenodd"/>
   <path fill="#fff" d="m128.1,23.19999c0,-1.3 1,-2.3 2.3,-2.3c1.4,0 2.4,1 2.4,2.3c0,1.4 -1,2.4 -2.4,2.4c-1.3,0 -2.3,-1 -2.3,-2.4z" class="b"/>
   <path stroke-width="0.7" stroke-miterlimit="2.6131" stroke="#231f20" fill="none" d="m128.1,23.19999c0,-1.3 1,-2.3 2.3,-2.3c1.4,0 2.4,1 2.4,2.3c0,1.4 -1,2.4 -2.4,2.4c-1.3,0 -2.3,-1 -2.3,-2.4z" class="c" fill-rule="evenodd"/>
   <path fill="#fff" d="m135.1,23.19999c0,-1.3 1,-2.3 2.3,-2.3c1.3,0 2.4,1 2.4,2.3c0,1.4 -1.1,2.4 -2.4,2.4c-1.3,0 -2.3,-1 -2.3,-2.4z" class="b"/>
   <path stroke-width="0.7" stroke-miterlimit="2.6131" stroke="#231f20" fill="none" d="m135.1,23.19999c0,-1.3 1,-2.3 2.3,-2.3c1.3,0 2.4,1 2.4,2.3c0,1.4 -1.1,2.4 -2.4,2.4c-1.3,0 -2.3,-1 -2.3,-2.4z" class="c" fill-rule="evenodd"/>
   <path fill="#fff" d="m142,23.19999c0,-1.3 1.1,-2.3 2.4,-2.3c1.3,0 2.4,1 2.4,2.3c0,1.4 -1.1,2.4 -2.4,2.4c-1.3,0 -2.4,-1 -2.4,-2.4z" class="b"/>
   <path stroke-width="0.7" stroke-miterlimit="2.6131" stroke="#231f20" fill="none" d="m142,23.19999c0,-1.3 1.1,-2.3 2.4,-2.3c1.3,0 2.4,1 2.4,2.3c0,1.4 -1.1,2.4 -2.4,2.4c-1.3,0 -2.4,-1 -2.4,-2.4z" class="c" fill-rule="evenodd"/>
   <path fill="#fff" d="m108.7,17.19999c0,-1.3 1,-2.4 2.3,-2.4c1.3,0 2.4,1.1 2.4,2.4c0,1.3 -1.1,2.4 -2.4,2.4c-1.3,0 -2.3,-1.1 -2.3,-2.4z" class="b"/>
   <path stroke-width="0.7" stroke-miterlimit="2.6131" stroke="#231f20" fill="none" d="m108.7,17.19999c0,-1.3 1,-2.4 2.3,-2.4c1.3,0 2.4,1.1 2.4,2.4c0,1.3 -1.1,2.4 -2.4,2.4c-1.3,0 -2.3,-1.1 -2.3,-2.4z" class="c" fill-rule="evenodd"/>
   <path fill="#fff" d="m115.6,17.19999c0,-1.3 1.1,-2.4 2.4,-2.4c1.3,0 2.4,1.1 2.4,2.4c0,1.3 -1.1,2.4 -2.4,2.4c-1.3,0 -2.4,-1.1 -2.4,-2.4z" class="b"/>
   <path stroke-width="0.7" stroke-miterlimit="2.6131" stroke="#231f20" fill="none" d="m115.6,17.19999c0,-1.3 1.1,-2.4 2.4,-2.4c1.3,0 2.4,1.1 2.4,2.4c0,1.3 -1.1,2.4 -2.4,2.4c-1.3,0 -2.4,-1.1 -2.4,-2.4z" class="c" fill-rule="evenodd"/>
   <path fill="#fff" d="m129.6,17.19999c0,-1.3 1,-2.4 2.4,-2.4c1.3,0 2.3,1.1 2.3,2.4c0,1.3 -1,2.4 -2.3,2.4c-1.4,0 -2.4,-1.1 -2.4,-2.4z" class="b"/>
   <path stroke-width="0.7" stroke-miterlimit="2.6131" stroke="#231f20" fill="none" d="m129.6,17.19999c0,-1.3 1,-2.4 2.4,-2.4c1.3,0 2.3,1.1 2.3,2.4c0,1.3 -1,2.4 -2.3,2.4c-1.4,0 -2.4,-1.1 -2.4,-2.4z" class="c" fill-rule="evenodd"/>
   <path fill="#fff" d="m136.6,17.19999c0,-1.3 1,-2.4 2.3,-2.4c1.3,0 2.4,1.1 2.4,2.4c0,1.3 -1.1,2.4 -2.4,2.4c-1.3,0 -2.3,-1.1 -2.3,-2.4z" class="b"/>
   <path stroke-width="0.7" stroke-miterlimit="2.6131" stroke="#231f20" fill="none" d="m136.6,17.19999c0,-1.3 1,-2.4 2.3,-2.4c1.3,0 2.4,1.1 2.4,2.4c0,1.3 -1.1,2.4 -2.4,2.4c-1.3,0 -2.3,-1.1 -2.3,-2.4z" class="c" fill-rule="evenodd"/>
   <path fill="#fff" d="m143.5,17.19999c0,-1.3 1.1,-2.4 2.4,-2.4c1.3,0 2.4,1.1 2.4,2.4c0,1.3 -1.1,2.4 -2.4,2.4c-1.3,0 -2.4,-1.1 -2.4,-2.4z" class="b"/>
   <path stroke-width="0.7" stroke-miterlimit="2.6131" stroke="#231f20" fill="none" d="m143.5,17.19999c0,-1.3 1.1,-2.4 2.4,-2.4c1.3,0 2.4,1.1 2.4,2.4c0,1.3 -1.1,2.4 -2.4,2.4c-1.3,0 -2.4,-1.1 -2.4,-2.4z" class="c" fill-rule="evenodd"/>
   <path fill="#fff" d="m101.1,29.29999c0,-1.3 1,-2.4 2.3,-2.4c1.3,0 2.4,1.1 2.4,2.4c0,1.3 -1.1,2.3 -2.4,2.3c-1.3,0 -2.3,-1 -2.3,-2.3z" class="b"/>
   <path stroke-width="0.7" stroke-miterlimit="2.6131" stroke="#231f20" fill="none" d="m101.1,29.29999c0,-1.3 1,-2.4 2.3,-2.4c1.3,0 2.4,1.1 2.4,2.4c0,1.3 -1.1,2.3 -2.4,2.3c-1.3,0 -2.3,-1 -2.3,-2.3z" class="c" fill-rule="evenodd"/>
   <path fill="#fff" d="m108,29.29999c0,-1.3 1.1,-2.4 2.4,-2.4c1.3,0 2.4,1.1 2.4,2.4c0,1.3 -1.1,2.3 -2.4,2.3c-1.3,0 -2.4,-1 -2.4,-2.3z" class="b"/>
   <path stroke-width="0.7" stroke-miterlimit="2.6131" stroke="#231f20" fill="none" d="m108,29.29999c0,-1.3 1.1,-2.4 2.4,-2.4c1.3,0 2.4,1.1 2.4,2.4c0,1.3 -1.1,2.3 -2.4,2.3c-1.3,0 -2.4,-1 -2.4,-2.3z" class="c" fill-rule="evenodd"/>
   <path fill="#fff" d="m115,29.29999c0,-1.3 1.1,-2.4 2.4,-2.4c1.3,0 2.4,1.1 2.4,2.4c0,1.3 -1.1,2.3 -2.4,2.3c-1.3,0 -2.4,-1 -2.4,-2.3z" class="b"/>
   <path stroke-width="0.7" stroke-miterlimit="2.6131" stroke="#231f20" fill="none" d="m115,29.29999c0,-1.3 1.1,-2.4 2.4,-2.4c1.3,0 2.4,1.1 2.4,2.4c0,1.3 -1.1,2.3 -2.4,2.3c-1.3,0 -2.4,-1 -2.4,-2.3z" class="c" fill-rule="evenodd"/>
   <path fill="#231f20" d="m126,11.19999c0,-1.3 1,-2.4 2.4,-2.4c1.3,0 2.3,1.1 2.3,2.4c0,1.3 -1,2.4 -2.3,2.4c-1.4,0 -2.4,-1.1 -2.4,-2.4z" class="a"/>
   <path fill="#231f20" d="m125.6,59.29999c0,-1.3 1,-2.4 2.3,-2.4c1.3,0 2.4,1.1 2.4,2.4c0,1.3 -1.1,2.4 -2.4,2.4c-1.3,0 -2.3,-1.1 -2.3,-2.4z" class="a"/>
   <path fill="#231f20" d="m131,47.29999c0,-1.3 1,-2.4 2.3,-2.4c1.3,0 2.4,1.1 2.4,2.4c0,1.3 -1.1,2.4 -2.4,2.4c-1.3,0 -2.3,-1.1 -2.3,-2.4z" class="a"/>
   <path fill="#231f20" d="m129.3,53.29999c0,-1.3 1.1,-2.4 2.4,-2.4c1.3,0 2.3,1.1 2.3,2.4c0,1.3 -1,2.4 -2.3,2.4c-1.3,0 -2.4,-1.1 -2.4,-2.4z" class="a"/>
   <path fill="#231f20" d="m126.3,35.29999c0,-1.3 1,-2.4 2.3,-2.4c1.3,0 2.4,1.1 2.4,2.4c0,1.3 -1.1,2.3 -2.4,2.3c-1.3,0 -2.3,-1 -2.3,-2.3z" class="a"/>
   <path fill="#231f20" d="m129.9,41.29999c0,-1.4 1,-2.4 2.3,-2.4c1.4,0 2.4,1 2.4,2.4c0,1.3 -1,2.3 -2.4,2.3c-1.3,0 -2.3,-1 -2.3,-2.3z" class="a"/>
   <path fill="#231f20" d="m121.1,23.19999c0,-1.3 1.1,-2.3 2.4,-2.3c1.3,0 2.3,1 2.3,2.3c0,1.4 -1,2.4 -2.3,2.4c-1.3,0 -2.4,-1 -2.4,-2.4z" class="a"/>
   <path fill="#231f20" d="m122.6,17.19999c0,-1.3 1.1,-2.4 2.4,-2.4c1.3,0 2.3,1.1 2.3,2.4c0,1.3 -1,2.4 -2.3,2.4c-1.3,0 -2.4,-1.1 -2.4,-2.4z" class="a"/>
   <path fill="#231f20" d="m122,29.29999c0,-1.3 1.1,-2.4 2.4,-2.4c1.3,0 2.3,1.1 2.3,2.4c0,1.3 -1,2.3 -2.3,2.3c-1.3,0 -2.4,-1 -2.4,-2.3z" class="a"/>
   <path fill="#fff" d="m129,29.29999c0,-1.3 1,-2.4 2.3,-2.4c1.3,0 2.4,1.1 2.4,2.4c0,1.3 -1.1,2.3 -2.4,2.3c-1.3,0 -2.3,-1 -2.3,-2.3z" class="b"/>
   <path stroke-width="0.7" stroke-miterlimit="2.6131" stroke="#231f20" fill="none" d="m129,29.29999c0,-1.3 1,-2.4 2.3,-2.4c1.3,0 2.4,1.1 2.4,2.4c0,1.3 -1.1,2.3 -2.4,2.3c-1.3,0 -2.3,-1 -2.3,-2.3z" class="c" fill-rule="evenodd"/>
   <path fill="#fff" d="m135.9,29.29999c0,-1.3 1.1,-2.4 2.4,-2.4c1.3,0 2.4,1.1 2.4,2.4c0,1.3 -1.1,2.3 -2.4,2.3c-1.3,0 -2.4,-1 -2.4,-2.3z" class="b"/>
   <path stroke-width="0.7" stroke-miterlimit="2.6131" stroke="#231f20" fill="none" d="m135.9,29.29999c0,-1.3 1.1,-2.4 2.4,-2.4c1.3,0 2.4,1.1 2.4,2.4c0,1.3 -1.1,2.3 -2.4,2.3c-1.3,0 -2.4,-1 -2.4,-2.3z" class="c" fill-rule="evenodd"/>
   <path fill="#fff" d="m142.9,29.29999c0,-1.3 1.1,-2.4 2.4,-2.4c1.3,0 2.4,1.1 2.4,2.4c0,1.3 -1.1,2.3 -2.4,2.3c-1.3,0 -2.4,-1 -2.4,-2.3z" class="b"/>
   <path stroke-width="0.7" stroke-miterlimit="2.6131" stroke="#231f20" fill="none" d="m142.9,29.29999c0,-1.3 1.1,-2.4 2.4,-2.4c1.3,0 2.4,1.1 2.4,2.4c0,1.3 -1.1,2.3 -2.4,2.3c-1.3,0 -2.4,-1 -2.4,-2.3z" class="c" fill-rule="evenodd"/>
   <path fill="#fff" d="m149.9,29.29999c0,-1.3 1.1,-2.4 2.4,-2.4c1.3,0 2.3,1.1 2.3,2.4c0,1.3 -1,2.3 -2.3,2.3c-1.3,0 -2.4,-1 -2.4,-2.3z" class="b"/>
   <path stroke-width="0.7" stroke-miterlimit="2.6131" stroke="#231f20" fill="none" d="m149.9,29.29999c0,-1.3 1.1,-2.4 2.4,-2.4c1.3,0 2.3,1.1 2.3,2.4c0,1.3 -1,2.3 -2.3,2.3c-1.3,0 -2.4,-1 -2.4,-2.3z" class="c" fill-rule="evenodd"/>
   <path fill="#231f20" d="m174,68.79999c0,-1.5 0.6,-2.8 1.5,-3.8c1,-1 2.4,-1.6 3.9,-1.6c1.5,0 2.8,0.6 3.8,1.6c0.9,1 1.6,2.3 1.6,3.8c0,1.5 -0.7,2.9 -1.6,3.9c-1,1 -2.3,1.6 -3.8,1.6c-1.5,0 -2.9,-0.6 -3.9,-1.6c-0.9,-1 -1.5,-2.4 -1.5,-3.9zm0.9,0c0,1.3 0.5,2.4 1.3,3.2c0.8,0.8 1.9,1.3 3.2,1.3c1.2,0 2.3,-0.5 3.1,-1.3c0.8,-0.8 1.3,-1.9 1.3,-3.2c0,-1.2 -0.5,-2.3 -1.3,-3.1c-0.8,-0.8 -1.9,-1.4 -3.1,-1.4c-1.3,0 -2.4,0.6 -3.2,1.4c-0.8,0.8 -1.3,1.9 -1.3,3.1z" class="a" fill-rule="evenodd"/>
   <path fill="#231f20" d="m177.4,71.19999l0,-5l2.1,0q0.8,0 1.1,0.2q0.4,0.1 0.6,0.4q0.2,0.4 0.2,0.8q0,0.6 -0.3,1q-0.3,0.3 -1,0.4q0.3,0.2 0.5,0.4q0.3,0.3 0.6,0.9l0.6,0.9l-1.2,0l-0.7,-1.1q-0.4,-0.5 -0.5,-0.7q-0.2,-0.1 -0.3,-0.2q-0.2,-0.1 -0.5,-0.1l-0.2,0l0,2.1l-1,0zm1,-2.8l0.7,0q0.7,-0.1 0.9,-0.1q0.2,-0.1 0.3,-0.2q0.1,-0.2 0.1,-0.4q0,-0.3 -0.1,-0.4q-0.2,-0.2 -0.4,-0.2q-0.1,0 -0.8,0l-0.7,0l0,1.3z" class="a" fill-rule="evenodd"/>
  </g>
 </g>
</svg>